<?xml version="1.0" encoding="utf-8" standalone="no"?>
<!DOCTYPE svg PUBLIC "-//W3C//DTD SVG 1.1//EN"
  "http://www.w3.org/Graphics/SVG/1.1/DTD/svg11.dtd">
<svg xmlns:xlink="http://www.w3.org/1999/xlink" width="590.010156pt" height="250.886672pt" viewBox="0 0 590.010156 250.886672" xmlns="http://www.w3.org/2000/svg" version="1.1">
 <metadata>
  <rdf:RDF xmlns:dc="http://purl.org/dc/elements/1.1/" xmlns:cc="http://creativecommons.org/ns#" xmlns:rdf="http://www.w3.org/1999/02/22-rdf-syntax-ns#">
   <cc:Work>
    <dc:type rdf:resource="http://purl.org/dc/dcmitype/StillImage"/>
    <dc:date>2026-08-07T04:51:44.625282</dc:date>
    <dc:format>image/svg+xml</dc:format>
    <dc:creator>
     <cc:Agent>
      <dc:title>Matplotlib v3.11.1, https://matplotlib.org/</dc:title>
     </cc:Agent>
    </dc:creator>
   </cc:Work>
  </rdf:RDF>
 </metadata>
 <defs>
  <style type="text/css">*{stroke-linejoin: round; stroke-linecap: butt}</style>
 </defs>
 <g id="figure_1">
  <g id="patch_1">
   <path d="M 0 250.886672 
L 590.010156 250.886672 
L 590.010156 0 
L 0 0 
L 0 250.886672 
z
" style="fill: none; opacity: 0"/>
  </g>
  <g id="axes_1">
   <g id="patch_2">
    <path d="M 43.530156 224.085969 
L 579.210156 224.085969 
L 579.210156 46.677969 
L 43.530156 46.677969 
L 43.530156 224.085969 
z
" style="fill: none"/>
   </g>
   <g id="matplotlib.axis_1">
    <g id="xtick_1">
     <g id="line2d_1">
      <defs>
       <path id="m65c8123ecb" d="M 0 0 
L 0 3.5 
" style="stroke: #59636e; stroke-width: 0.8"/>
      </defs>
      <g>
       <use xlink:href="#m65c8123ecb" x="91.69901" y="224.085969" style="fill: #59636e; stroke: #59636e; stroke-width: 0.8"/>
      </g>
     </g>
     <g id="text_1">
      <!-- May 11 -->
      <g style="fill: #59636e" transform="translate(75.238854 237.923859) scale(0.09 -0.09)">
       <defs>
        <path id="DejaVuSans-30" d="M 628 4666 
L 1569 4666 
L 2759 1491 
L 3956 4666 
L 4897 4666 
L 4897 0 
L 4281 0 
L 4281 4097 
L 3078 897 
L 2444 897 
L 1241 4097 
L 1241 0 
L 628 0 
L 628 4666 
z
" transform="scale(0.015625)"/>
        <path id="DejaVuSans-44" d="M 2194 1759 
Q 1497 1759 1228 1600 
Q 959 1441 959 1056 
Q 959 750 1161 570 
Q 1363 391 1709 391 
Q 2188 391 2477 730 
Q 2766 1069 2766 1631 
L 2766 1759 
L 2194 1759 
z
M 3341 1997 
L 3341 0 
L 2766 0 
L 2766 531 
Q 2569 213 2275 61 
Q 1981 -91 1556 -91 
Q 1019 -91 701 211 
Q 384 513 384 1019 
Q 384 1609 779 1909 
Q 1175 2209 1959 2209 
L 2766 2209 
L 2766 2266 
Q 2766 2663 2505 2880 
Q 2244 3097 1772 3097 
Q 1472 3097 1187 3025 
Q 903 2953 641 2809 
L 641 3341 
Q 956 3463 1253 3523 
Q 1550 3584 1831 3584 
Q 2591 3584 2966 3190 
Q 3341 2797 3341 1997 
z
" transform="scale(0.015625)"/>
        <path id="DejaVuSans-5c" d="M 2059 -325 
Q 1816 -950 1584 -1140 
Q 1353 -1331 966 -1331 
L 506 -1331 
L 506 -850 
L 844 -850 
Q 1081 -850 1212 -737 
Q 1344 -625 1503 -206 
L 1606 56 
L 191 3500 
L 800 3500 
L 1894 763 
L 2988 3500 
L 3597 3500 
L 2059 -325 
z
" transform="scale(0.015625)"/>
        <path id="DejaVuSans-3" transform="scale(0.015625)"/>
        <path id="DejaVuSans-14" d="M 794 531 
L 1825 531 
L 1825 4091 
L 703 3866 
L 703 4441 
L 1819 4666 
L 2450 4666 
L 2450 531 
L 3481 531 
L 3481 0 
L 794 0 
L 794 531 
z
" transform="scale(0.015625)"/>
       </defs>
       <use xlink:href="#DejaVuSans-30"/>
       <use xlink:href="#DejaVuSans-44" transform="translate(86.28125 0)"/>
       <use xlink:href="#DejaVuSans-5c" transform="translate(147.5625 0)"/>
       <use xlink:href="#DejaVuSans-3" transform="translate(206.75 0)"/>
       <use xlink:href="#DejaVuSans-14" transform="translate(238.53125 0)"/>
       <use xlink:href="#DejaVuSans-14" transform="translate(302.15625 0)"/>
      </g>
     </g>
    </g>
    <g id="xtick_2">
     <g id="line2d_2">
      <g>
       <use xlink:href="#m65c8123ecb" x="165.804939" y="224.085969" style="fill: #59636e; stroke: #59636e; stroke-width: 0.8"/>
      </g>
     </g>
     <g id="text_2">
      <!-- May 25 -->
      <g style="fill: #59636e" transform="translate(149.344783 237.923859) scale(0.09 -0.09)">
       <defs>
        <path id="DejaVuSans-15" d="M 1228 531 
L 3431 531 
L 3431 0 
L 469 0 
L 469 531 
Q 828 903 1448 1529 
Q 2069 2156 2228 2338 
Q 2531 2678 2651 2914 
Q 2772 3150 2772 3378 
Q 2772 3750 2511 3984 
Q 2250 4219 1831 4219 
Q 1534 4219 1204 4116 
Q 875 4013 500 3803 
L 500 4441 
Q 881 4594 1212 4672 
Q 1544 4750 1819 4750 
Q 2544 4750 2975 4387 
Q 3406 4025 3406 3419 
Q 3406 3131 3298 2873 
Q 3191 2616 2906 2266 
Q 2828 2175 2409 1742 
Q 1991 1309 1228 531 
z
" transform="scale(0.015625)"/>
        <path id="DejaVuSans-18" d="M 691 4666 
L 3169 4666 
L 3169 4134 
L 1269 4134 
L 1269 2991 
Q 1406 3038 1543 3061 
Q 1681 3084 1819 3084 
Q 2600 3084 3056 2656 
Q 3513 2228 3513 1497 
Q 3513 744 3044 326 
Q 2575 -91 1722 -91 
Q 1428 -91 1123 -41 
Q 819 9 494 109 
L 494 744 
Q 775 591 1075 516 
Q 1375 441 1709 441 
Q 2250 441 2565 725 
Q 2881 1009 2881 1497 
Q 2881 1984 2565 2268 
Q 2250 2553 1709 2553 
Q 1456 2553 1204 2497 
Q 953 2441 691 2322 
L 691 4666 
z
" transform="scale(0.015625)"/>
       </defs>
       <use xlink:href="#DejaVuSans-30"/>
       <use xlink:href="#DejaVuSans-44" transform="translate(86.28125 0)"/>
       <use xlink:href="#DejaVuSans-5c" transform="translate(147.5625 0)"/>
       <use xlink:href="#DejaVuSans-3" transform="translate(206.75 0)"/>
       <use xlink:href="#DejaVuSans-15" transform="translate(238.53125 0)"/>
       <use xlink:href="#DejaVuSans-18" transform="translate(302.15625 0)"/>
      </g>
     </g>
    </g>
    <g id="xtick_3">
     <g id="line2d_3">
      <g>
       <use xlink:href="#m65c8123ecb" x="239.910868" y="224.085969" style="fill: #59636e; stroke: #59636e; stroke-width: 0.8"/>
      </g>
     </g>
     <g id="text_3">
      <!-- Jun 08 -->
      <g style="fill: #59636e" transform="translate(225.723211 237.923859) scale(0.09 -0.09)">
       <defs>
        <path id="DejaVuSans-2d" d="M 628 4666 
L 1259 4666 
L 1259 325 
Q 1259 -519 939 -900 
Q 619 -1281 -91 -1281 
L -331 -1281 
L -331 -750 
L -134 -750 
Q 284 -750 456 -515 
Q 628 -281 628 325 
L 628 4666 
z
" transform="scale(0.015625)"/>
        <path id="DejaVuSans-58" d="M 544 1381 
L 544 3500 
L 1119 3500 
L 1119 1403 
Q 1119 906 1312 657 
Q 1506 409 1894 409 
Q 2359 409 2629 706 
Q 2900 1003 2900 1516 
L 2900 3500 
L 3475 3500 
L 3475 0 
L 2900 0 
L 2900 538 
Q 2691 219 2414 64 
Q 2138 -91 1772 -91 
Q 1169 -91 856 284 
Q 544 659 544 1381 
z
M 1991 3584 
L 1991 3584 
z
" transform="scale(0.015625)"/>
        <path id="DejaVuSans-51" d="M 3513 2113 
L 3513 0 
L 2938 0 
L 2938 2094 
Q 2938 2591 2744 2837 
Q 2550 3084 2163 3084 
Q 1697 3084 1428 2787 
Q 1159 2491 1159 1978 
L 1159 0 
L 581 0 
L 581 3500 
L 1159 3500 
L 1159 2956 
Q 1366 3272 1645 3428 
Q 1925 3584 2291 3584 
Q 2894 3584 3203 3211 
Q 3513 2838 3513 2113 
z
" transform="scale(0.015625)"/>
        <path id="DejaVuSans-13" d="M 2034 4250 
Q 1547 4250 1301 3770 
Q 1056 3291 1056 2328 
Q 1056 1369 1301 889 
Q 1547 409 2034 409 
Q 2525 409 2770 889 
Q 3016 1369 3016 2328 
Q 3016 3291 2770 3770 
Q 2525 4250 2034 4250 
z
M 2034 4750 
Q 2819 4750 3233 4129 
Q 3647 3509 3647 2328 
Q 3647 1150 3233 529 
Q 2819 -91 2034 -91 
Q 1250 -91 836 529 
Q 422 1150 422 2328 
Q 422 3509 836 4129 
Q 1250 4750 2034 4750 
z
" transform="scale(0.015625)"/>
        <path id="DejaVuSans-1b" d="M 2034 2216 
Q 1584 2216 1326 1975 
Q 1069 1734 1069 1313 
Q 1069 891 1326 650 
Q 1584 409 2034 409 
Q 2484 409 2743 651 
Q 3003 894 3003 1313 
Q 3003 1734 2745 1975 
Q 2488 2216 2034 2216 
z
M 1403 2484 
Q 997 2584 770 2862 
Q 544 3141 544 3541 
Q 544 4100 942 4425 
Q 1341 4750 2034 4750 
Q 2731 4750 3128 4425 
Q 3525 4100 3525 3541 
Q 3525 3141 3298 2862 
Q 3072 2584 2669 2484 
Q 3125 2378 3379 2068 
Q 3634 1759 3634 1313 
Q 3634 634 3220 271 
Q 2806 -91 2034 -91 
Q 1263 -91 848 271 
Q 434 634 434 1313 
Q 434 1759 690 2068 
Q 947 2378 1403 2484 
z
M 1172 3481 
Q 1172 3119 1398 2916 
Q 1625 2713 2034 2713 
Q 2441 2713 2670 2916 
Q 2900 3119 2900 3481 
Q 2900 3844 2670 4047 
Q 2441 4250 2034 4250 
Q 1625 4250 1398 4047 
Q 1172 3844 1172 3481 
z
" transform="scale(0.015625)"/>
       </defs>
       <use xlink:href="#DejaVuSans-2d"/>
       <use xlink:href="#DejaVuSans-58" transform="translate(29.5 0)"/>
       <use xlink:href="#DejaVuSans-51" transform="translate(92.875 0)"/>
       <use xlink:href="#DejaVuSans-3" transform="translate(156.25 0)"/>
       <use xlink:href="#DejaVuSans-13" transform="translate(188.03125 0)"/>
       <use xlink:href="#DejaVuSans-1b" transform="translate(251.65625 0)"/>
      </g>
     </g>
    </g>
    <g id="xtick_4">
     <g id="line2d_4">
      <g>
       <use xlink:href="#m65c8123ecb" x="314.016797" y="224.085969" style="fill: #59636e; stroke: #59636e; stroke-width: 0.8"/>
      </g>
     </g>
     <g id="text_4">
      <!-- Jun 22 -->
      <g style="fill: #59636e" transform="translate(299.82914 237.923859) scale(0.09 -0.09)">
       <use xlink:href="#DejaVuSans-2d"/>
       <use xlink:href="#DejaVuSans-58" transform="translate(29.5 0)"/>
       <use xlink:href="#DejaVuSans-51" transform="translate(92.875 0)"/>
       <use xlink:href="#DejaVuSans-3" transform="translate(156.25 0)"/>
       <use xlink:href="#DejaVuSans-15" transform="translate(188.03125 0)"/>
       <use xlink:href="#DejaVuSans-15" transform="translate(251.65625 0)"/>
      </g>
     </g>
    </g>
    <g id="xtick_5">
     <g id="line2d_5">
      <g>
       <use xlink:href="#m65c8123ecb" x="388.122725" y="224.085969" style="fill: #59636e; stroke: #59636e; stroke-width: 0.8"/>
      </g>
     </g>
     <g id="text_5">
      <!-- Jul 06 -->
      <g style="fill: #59636e" transform="translate(375.536788 237.924562) scale(0.09 -0.09)">
       <defs>
        <path id="DejaVuSans-4f" d="M 603 4863 
L 1178 4863 
L 1178 0 
L 603 0 
L 603 4863 
z
" transform="scale(0.015625)"/>
        <path id="DejaVuSans-19" d="M 2113 2584 
Q 1688 2584 1439 2293 
Q 1191 2003 1191 1497 
Q 1191 994 1439 701 
Q 1688 409 2113 409 
Q 2538 409 2786 701 
Q 3034 994 3034 1497 
Q 3034 2003 2786 2293 
Q 2538 2584 2113 2584 
z
M 3366 4563 
L 3366 3988 
Q 3128 4100 2886 4159 
Q 2644 4219 2406 4219 
Q 1781 4219 1451 3797 
Q 1122 3375 1075 2522 
Q 1259 2794 1537 2939 
Q 1816 3084 2150 3084 
Q 2853 3084 3261 2657 
Q 3669 2231 3669 1497 
Q 3669 778 3244 343 
Q 2819 -91 2113 -91 
Q 1303 -91 875 529 
Q 447 1150 447 2328 
Q 447 3434 972 4092 
Q 1497 4750 2381 4750 
Q 2619 4750 2861 4703 
Q 3103 4656 3366 4563 
z
" transform="scale(0.015625)"/>
       </defs>
       <use xlink:href="#DejaVuSans-2d"/>
       <use xlink:href="#DejaVuSans-58" transform="translate(29.5 0)"/>
       <use xlink:href="#DejaVuSans-4f" transform="translate(92.875 0)"/>
       <use xlink:href="#DejaVuSans-3" transform="translate(120.65625 0)"/>
       <use xlink:href="#DejaVuSans-13" transform="translate(152.4375 0)"/>
       <use xlink:href="#DejaVuSans-19" transform="translate(216.0625 0)"/>
      </g>
     </g>
    </g>
    <g id="xtick_6">
     <g id="line2d_6">
      <g>
       <use xlink:href="#m65c8123ecb" x="462.228654" y="224.085969" style="fill: #59636e; stroke: #59636e; stroke-width: 0.8"/>
      </g>
     </g>
     <g id="text_6">
      <!-- Jul 20 -->
      <g style="fill: #59636e" transform="translate(449.642717 237.924562) scale(0.09 -0.09)">
       <use xlink:href="#DejaVuSans-2d"/>
       <use xlink:href="#DejaVuSans-58" transform="translate(29.5 0)"/>
       <use xlink:href="#DejaVuSans-4f" transform="translate(92.875 0)"/>
       <use xlink:href="#DejaVuSans-3" transform="translate(120.65625 0)"/>
       <use xlink:href="#DejaVuSans-15" transform="translate(152.4375 0)"/>
       <use xlink:href="#DejaVuSans-13" transform="translate(216.0625 0)"/>
      </g>
     </g>
    </g>
    <g id="xtick_7">
     <g id="line2d_7">
      <g>
       <use xlink:href="#m65c8123ecb" x="536.334583" y="224.085969" style="fill: #59636e; stroke: #59636e; stroke-width: 0.8"/>
      </g>
     </g>
     <g id="text_7">
      <!-- Aug 03 -->
      <g style="fill: #59636e" transform="translate(520.391224 237.923859) scale(0.09 -0.09)">
       <defs>
        <path id="DejaVuSans-24" d="M 2188 4044 
L 1331 1722 
L 3047 1722 
L 2188 4044 
z
M 1831 4666 
L 2547 4666 
L 4325 0 
L 3669 0 
L 3244 1197 
L 1141 1197 
L 716 0 
L 50 0 
L 1831 4666 
z
" transform="scale(0.015625)"/>
        <path id="DejaVuSans-4a" d="M 2906 1791 
Q 2906 2416 2648 2759 
Q 2391 3103 1925 3103 
Q 1463 3103 1205 2759 
Q 947 2416 947 1791 
Q 947 1169 1205 825 
Q 1463 481 1925 481 
Q 2391 481 2648 825 
Q 2906 1169 2906 1791 
z
M 3481 434 
Q 3481 -459 3084 -895 
Q 2688 -1331 1869 -1331 
Q 1566 -1331 1297 -1286 
Q 1028 -1241 775 -1147 
L 775 -588 
Q 1028 -725 1275 -790 
Q 1522 -856 1778 -856 
Q 2344 -856 2625 -561 
Q 2906 -266 2906 331 
L 2906 616 
Q 2728 306 2450 153 
Q 2172 0 1784 0 
Q 1141 0 747 490 
Q 353 981 353 1791 
Q 353 2603 747 3093 
Q 1141 3584 1784 3584 
Q 2172 3584 2450 3431 
Q 2728 3278 2906 2969 
L 2906 3500 
L 3481 3500 
L 3481 434 
z
" transform="scale(0.015625)"/>
        <path id="DejaVuSans-16" d="M 2597 2516 
Q 3050 2419 3304 2112 
Q 3559 1806 3559 1356 
Q 3559 666 3084 287 
Q 2609 -91 1734 -91 
Q 1441 -91 1130 -33 
Q 819 25 488 141 
L 488 750 
Q 750 597 1062 519 
Q 1375 441 1716 441 
Q 2309 441 2620 675 
Q 2931 909 2931 1356 
Q 2931 1769 2642 2001 
Q 2353 2234 1838 2234 
L 1294 2234 
L 1294 2753 
L 1863 2753 
Q 2328 2753 2575 2939 
Q 2822 3125 2822 3475 
Q 2822 3834 2567 4026 
Q 2313 4219 1838 4219 
Q 1578 4219 1281 4162 
Q 984 4106 628 3988 
L 628 4550 
Q 988 4650 1302 4700 
Q 1616 4750 1894 4750 
Q 2613 4750 3031 4423 
Q 3450 4097 3450 3541 
Q 3450 3153 3228 2886 
Q 3006 2619 2597 2516 
z
" transform="scale(0.015625)"/>
       </defs>
       <use xlink:href="#DejaVuSans-24"/>
       <use xlink:href="#DejaVuSans-58" transform="translate(68.40625 0)"/>
       <use xlink:href="#DejaVuSans-4a" transform="translate(131.78125 0)"/>
       <use xlink:href="#DejaVuSans-3" transform="translate(195.265625 0)"/>
       <use xlink:href="#DejaVuSans-13" transform="translate(227.046875 0)"/>
       <use xlink:href="#DejaVuSans-16" transform="translate(290.671875 0)"/>
      </g>
     </g>
    </g>
   </g>
   <g id="matplotlib.axis_2">
    <g id="ytick_1">
     <g id="line2d_8">
      <path d="M 43.530156 224.085969 
L 579.210156 224.085969 
" clip-path="url(#pcde60c4f52)" style="fill: none; stroke: #d1d9e0; stroke-opacity: 0.6; stroke-width: 0.6; stroke-linecap: square"/>
     </g>
     <g id="line2d_9">
      <defs>
       <path id="m14effbcefd" d="M 0 0 
L -3.5 0 
" style="stroke: #59636e; stroke-width: 0.8"/>
      </defs>
      <g>
       <use xlink:href="#m14effbcefd" x="43.530156" y="224.085969" style="fill: #59636e; stroke: #59636e; stroke-width: 0.8"/>
      </g>
     </g>
     <g id="text_8">
      <!-- 0% -->
      <g style="fill: #59636e" transform="translate(22.2525 227.504914) scale(0.09 -0.09)">
       <defs>
        <path id="DejaVuSans-8" d="M 4653 2053 
Q 4381 2053 4226 1822 
Q 4072 1591 4072 1178 
Q 4072 772 4226 539 
Q 4381 306 4653 306 
Q 4919 306 5073 539 
Q 5228 772 5228 1178 
Q 5228 1588 5073 1820 
Q 4919 2053 4653 2053 
z
M 4653 2450 
Q 5147 2450 5437 2106 
Q 5728 1763 5728 1178 
Q 5728 594 5436 251 
Q 5144 -91 4653 -91 
Q 4153 -91 3862 251 
Q 3572 594 3572 1178 
Q 3572 1766 3864 2108 
Q 4156 2450 4653 2450 
z
M 1428 4353 
Q 1159 4353 1004 4120 
Q 850 3888 850 3481 
Q 850 3069 1003 2837 
Q 1156 2606 1428 2606 
Q 1700 2606 1854 2837 
Q 2009 3069 2009 3481 
Q 2009 3884 1853 4118 
Q 1697 4353 1428 4353 
z
M 4250 4750 
L 4750 4750 
L 1831 -91 
L 1331 -91 
L 4250 4750 
z
M 1428 4750 
Q 1922 4750 2215 4408 
Q 2509 4066 2509 3481 
Q 2509 2891 2217 2550 
Q 1925 2209 1428 2209 
Q 931 2209 642 2551 
Q 353 2894 353 3481 
Q 353 4063 643 4406 
Q 934 4750 1428 4750 
z
" transform="scale(0.015625)"/>
       </defs>
       <use xlink:href="#DejaVuSans-13"/>
       <use xlink:href="#DejaVuSans-8" transform="translate(63.625 0)"/>
      </g>
     </g>
    </g>
    <g id="ytick_2">
     <g id="line2d_10">
      <path d="M 43.530156 188.604369 
L 579.210156 188.604369 
" clip-path="url(#pcde60c4f52)" style="fill: none; stroke: #d1d9e0; stroke-opacity: 0.6; stroke-width: 0.6; stroke-linecap: square"/>
     </g>
     <g id="line2d_11">
      <g>
       <use xlink:href="#m14effbcefd" x="43.530156" y="188.604369" style="fill: #59636e; stroke: #59636e; stroke-width: 0.8"/>
      </g>
     </g>
     <g id="text_9">
      <!-- 20% -->
      <g style="fill: #59636e" transform="translate(16.52625 192.023314) scale(0.09 -0.09)">
       <use xlink:href="#DejaVuSans-15"/>
       <use xlink:href="#DejaVuSans-13" transform="translate(63.625 0)"/>
       <use xlink:href="#DejaVuSans-8" transform="translate(127.25 0)"/>
      </g>
     </g>
    </g>
    <g id="ytick_3">
     <g id="line2d_12">
      <path d="M 43.530156 153.122769 
L 579.210156 153.122769 
" clip-path="url(#pcde60c4f52)" style="fill: none; stroke: #d1d9e0; stroke-opacity: 0.6; stroke-width: 0.6; stroke-linecap: square"/>
     </g>
     <g id="line2d_13">
      <g>
       <use xlink:href="#m14effbcefd" x="43.530156" y="153.122769" style="fill: #59636e; stroke: #59636e; stroke-width: 0.8"/>
      </g>
     </g>
     <g id="text_10">
      <!-- 40% -->
      <g style="fill: #59636e" transform="translate(16.52625 156.541714) scale(0.09 -0.09)">
       <defs>
        <path id="DejaVuSans-17" d="M 2419 4116 
L 825 1625 
L 2419 1625 
L 2419 4116 
z
M 2253 4666 
L 3047 4666 
L 3047 1625 
L 3713 1625 
L 3713 1100 
L 3047 1100 
L 3047 0 
L 2419 0 
L 2419 1100 
L 313 1100 
L 313 1709 
L 2253 4666 
z
" transform="scale(0.015625)"/>
       </defs>
       <use xlink:href="#DejaVuSans-17"/>
       <use xlink:href="#DejaVuSans-13" transform="translate(63.625 0)"/>
       <use xlink:href="#DejaVuSans-8" transform="translate(127.25 0)"/>
      </g>
     </g>
    </g>
    <g id="ytick_4">
     <g id="line2d_14">
      <path d="M 43.530156 117.641169 
L 579.210156 117.641169 
" clip-path="url(#pcde60c4f52)" style="fill: none; stroke: #d1d9e0; stroke-opacity: 0.6; stroke-width: 0.6; stroke-linecap: square"/>
     </g>
     <g id="line2d_15">
      <g>
       <use xlink:href="#m14effbcefd" x="43.530156" y="117.641169" style="fill: #59636e; stroke: #59636e; stroke-width: 0.8"/>
      </g>
     </g>
     <g id="text_11">
      <!-- 60% -->
      <g style="fill: #59636e" transform="translate(16.52625 121.060114) scale(0.09 -0.09)">
       <use xlink:href="#DejaVuSans-19"/>
       <use xlink:href="#DejaVuSans-13" transform="translate(63.625 0)"/>
       <use xlink:href="#DejaVuSans-8" transform="translate(127.25 0)"/>
      </g>
     </g>
    </g>
    <g id="ytick_5">
     <g id="line2d_16">
      <path d="M 43.530156 82.159569 
L 579.210156 82.159569 
" clip-path="url(#pcde60c4f52)" style="fill: none; stroke: #d1d9e0; stroke-opacity: 0.6; stroke-width: 0.6; stroke-linecap: square"/>
     </g>
     <g id="line2d_17">
      <g>
       <use xlink:href="#m14effbcefd" x="43.530156" y="82.159569" style="fill: #59636e; stroke: #59636e; stroke-width: 0.8"/>
      </g>
     </g>
     <g id="text_12">
      <!-- 80% -->
      <g style="fill: #59636e" transform="translate(16.52625 85.578514) scale(0.09 -0.09)">
       <use xlink:href="#DejaVuSans-1b"/>
       <use xlink:href="#DejaVuSans-13" transform="translate(63.625 0)"/>
       <use xlink:href="#DejaVuSans-8" transform="translate(127.25 0)"/>
      </g>
     </g>
    </g>
    <g id="ytick_6">
     <g id="line2d_18">
      <path d="M 43.530156 46.677969 
L 579.210156 46.677969 
" clip-path="url(#pcde60c4f52)" style="fill: none; stroke: #d1d9e0; stroke-opacity: 0.6; stroke-width: 0.6; stroke-linecap: square"/>
     </g>
     <g id="line2d_19">
      <g>
       <use xlink:href="#m14effbcefd" x="43.530156" y="46.677969" style="fill: #59636e; stroke: #59636e; stroke-width: 0.8"/>
      </g>
     </g>
     <g id="text_13">
      <!-- 100% -->
      <g style="fill: #59636e" transform="translate(10.8 50.096914) scale(0.09 -0.09)">
       <use xlink:href="#DejaVuSans-14"/>
       <use xlink:href="#DejaVuSans-13" transform="translate(63.625 0)"/>
       <use xlink:href="#DejaVuSans-13" transform="translate(127.25 0)"/>
       <use xlink:href="#DejaVuSans-8" transform="translate(190.875 0)"/>
      </g>
     </g>
    </g>
   </g>
   <g id="patch_3">
    <path d="M 67.879247 224.085969 
L 73.172528 224.085969 
L 73.172528 224.085969 
L 67.879247 224.085969 
z
" clip-path="url(#pcde60c4f52)" style="fill: #0969da"/>
   </g>
   <g id="patch_4">
    <path d="M 73.172528 224.085969 
L 78.465808 224.085969 
L 78.465808 209.711827 
L 73.172528 209.711827 
z
" clip-path="url(#pcde60c4f52)" style="fill: #0969da"/>
   </g>
   <g id="patch_5">
    <path d="M 89.05237 224.085969 
L 94.34565 224.085969 
L 94.34565 153.770709 
L 89.05237 153.770709 
z
" clip-path="url(#pcde60c4f52)" style="fill: #0969da"/>
   </g>
   <g id="patch_6">
    <path d="M 94.34565 224.085969 
L 99.638931 224.085969 
L 99.638931 188.152414 
L 94.34565 188.152414 
z
" clip-path="url(#pcde60c4f52)" style="fill: #0969da"/>
   </g>
   <g id="patch_7">
    <path d="M 99.638931 224.085969 
L 104.932212 224.085969 
L 104.932212 224.085969 
L 99.638931 224.085969 
z
" clip-path="url(#pcde60c4f52)" style="fill: #0969da"/>
   </g>
   <g id="patch_8">
    <path d="M 104.932212 224.085969 
L 110.225492 224.085969 
L 110.225492 224.085969 
L 104.932212 224.085969 
z
" clip-path="url(#pcde60c4f52)" style="fill: #0969da"/>
   </g>
   <g id="patch_9">
    <path d="M 115.518773 224.085969 
L 120.812053 224.085969 
L 120.812053 137.658273 
L 115.518773 137.658273 
z
" clip-path="url(#pcde60c4f52)" style="fill: #0969da"/>
   </g>
   <g id="patch_10">
    <path d="M 120.812053 224.085969 
L 126.105334 224.085969 
L 126.105334 221.561461 
L 120.812053 221.561461 
z
" clip-path="url(#pcde60c4f52)" style="fill: #0969da"/>
   </g>
   <g id="patch_11">
    <path d="M 126.105334 224.085969 
L 131.398615 224.085969 
L 131.398615 212.376179 
L 126.105334 212.376179 
z
" clip-path="url(#pcde60c4f52)" style="fill: #0969da"/>
   </g>
   <g id="patch_12">
    <path d="M 131.398615 224.085969 
L 136.691895 224.085969 
L 136.691895 184.673901 
L 131.398615 184.673901 
z
" clip-path="url(#pcde60c4f52)" style="fill: #0969da"/>
   </g>
   <g id="patch_13">
    <path d="M 136.691895 224.085969 
L 141.985176 224.085969 
L 141.985176 202.431861 
L 136.691895 202.431861 
z
" clip-path="url(#pcde60c4f52)" style="fill: #0969da"/>
   </g>
   <g id="patch_14">
    <path d="M 141.985176 224.085969 
L 147.278457 224.085969 
L 147.278457 159.739082 
L 141.985176 159.739082 
z
" clip-path="url(#pcde60c4f52)" style="fill: #0969da"/>
   </g>
   <g id="patch_15">
    <path d="M 147.278457 224.085969 
L 152.571737 224.085969 
L 152.571737 217.446385 
L 147.278457 217.446385 
z
" clip-path="url(#pcde60c4f52)" style="fill: #0969da"/>
   </g>
   <g id="patch_16">
    <path d="M 152.571737 224.085969 
L 157.865018 224.085969 
L 157.865018 224.085969 
L 152.571737 224.085969 
z
" clip-path="url(#pcde60c4f52)" style="fill: #0969da"/>
   </g>
   <g id="patch_17">
    <path d="M 157.865018 224.085969 
L 163.158299 224.085969 
L 163.158299 132.111775 
L 157.865018 132.111775 
z
" clip-path="url(#pcde60c4f52)" style="fill: #0969da"/>
   </g>
   <g id="patch_18">
    <path d="M 163.158299 224.085969 
L 168.451579 224.085969 
L 168.451579 134.710534 
L 163.158299 134.710534 
z
" clip-path="url(#pcde60c4f52)" style="fill: #0969da"/>
   </g>
   <g id="patch_19">
    <path d="M 168.451579 224.085969 
L 173.74486 224.085969 
L 173.74486 101.408553 
L 168.451579 101.408553 
z
" clip-path="url(#pcde60c4f52)" style="fill: #0969da"/>
   </g>
   <g id="patch_20">
    <path d="M 173.74486 224.085969 
L 179.03814 224.085969 
L 179.03814 221.96661 
L 173.74486 221.96661 
z
" clip-path="url(#pcde60c4f52)" style="fill: #0969da"/>
   </g>
   <g id="patch_21">
    <path d="M 179.03814 224.085969 
L 184.331421 224.085969 
L 184.331421 223.957612 
L 179.03814 223.957612 
z
" clip-path="url(#pcde60c4f52)" style="fill: #0969da"/>
   </g>
   <g id="patch_22">
    <path d="M 184.331421 224.085969 
L 189.624702 224.085969 
L 189.624702 152.992823 
L 184.331421 152.992823 
z
" clip-path="url(#pcde60c4f52)" style="fill: #0969da"/>
   </g>
   <g id="patch_23">
    <path d="M 210.797824 224.085969 
L 216.091105 224.085969 
L 216.091105 224.085969 
L 210.797824 224.085969 
z
" clip-path="url(#pcde60c4f52)" style="fill: #0969da"/>
   </g>
   <g id="patch_24">
    <path d="M 216.091105 224.085969 
L 221.384385 224.085969 
L 221.384385 167.542974 
L 216.091105 167.542974 
z
" clip-path="url(#pcde60c4f52)" style="fill: #0969da"/>
   </g>
   <g id="patch_25">
    <path d="M 226.677666 224.085969 
L 231.970947 224.085969 
L 231.970947 118.960942 
L 226.677666 118.960942 
z
" clip-path="url(#pcde60c4f52)" style="fill: #0969da"/>
   </g>
   <g id="patch_26">
    <path d="M 231.970947 224.085969 
L 237.264227 224.085969 
L 237.264227 81.184387 
L 231.970947 81.184387 
z
" clip-path="url(#pcde60c4f52)" style="fill: #0969da"/>
   </g>
   <g id="patch_27">
    <path d="M 237.264227 224.085969 
L 242.557508 224.085969 
L 242.557508 102.132501 
L 237.264227 102.132501 
z
" clip-path="url(#pcde60c4f52)" style="fill: #0969da"/>
   </g>
   <g id="patch_28">
    <path d="M 258.43735 224.085969 
L 263.730631 224.085969 
L 263.730631 153.187125 
L 258.43735 153.187125 
z
" clip-path="url(#pcde60c4f52)" style="fill: #0969da"/>
   </g>
   <g id="patch_29">
    <path d="M 279.610472 224.085969 
L 284.903753 224.085969 
L 284.903753 175.989031 
L 279.610472 175.989031 
z
" clip-path="url(#pcde60c4f52)" style="fill: #0969da"/>
   </g>
   <g id="patch_30">
    <path d="M 284.903753 224.085969 
L 290.197034 224.085969 
L 290.197034 71.873009 
L 284.903753 71.873009 
z
" clip-path="url(#pcde60c4f52)" style="fill: #0969da"/>
   </g>
   <g id="patch_31">
    <path d="M 290.197034 224.085969 
L 295.490314 224.085969 
L 295.490314 80.495908 
L 290.197034 80.495908 
z
" clip-path="url(#pcde60c4f52)" style="fill: #0969da"/>
   </g>
   <g id="patch_32">
    <path d="M 295.490314 224.085969 
L 300.783595 224.085969 
L 300.783595 144.871234 
L 295.490314 144.871234 
z
" clip-path="url(#pcde60c4f52)" style="fill: #0969da"/>
   </g>
   <g id="patch_33">
    <path d="M 300.783595 224.085969 
L 306.076876 224.085969 
L 306.076876 224.085969 
L 300.783595 224.085969 
z
" clip-path="url(#pcde60c4f52)" style="fill: #0969da"/>
   </g>
   <g id="patch_34">
    <path d="M 311.370156 224.085969 
L 316.663437 224.085969 
L 316.663437 144.573195 
L 311.370156 144.573195 
z
" clip-path="url(#pcde60c4f52)" style="fill: #0969da"/>
   </g>
   <g id="patch_35">
    <path d="M 316.663437 224.085969 
L 321.956718 224.085969 
L 321.956718 216.659404 
L 316.663437 216.659404 
z
" clip-path="url(#pcde60c4f52)" style="fill: #0969da"/>
   </g>
   <g id="patch_36">
    <path d="M 321.956718 224.085969 
L 327.249998 224.085969 
L 327.249998 90.923382 
L 321.956718 90.923382 
z
" clip-path="url(#pcde60c4f52)" style="fill: #0969da"/>
   </g>
   <g id="patch_37">
    <path d="M 332.543279 224.085969 
L 337.836559 224.085969 
L 337.836559 47.807956 
L 332.543279 47.807956 
z
" clip-path="url(#pcde60c4f52)" style="fill: #0969da"/>
   </g>
   <g id="patch_38">
    <path d="M 337.836559 224.085969 
L 343.12984 224.085969 
L 343.12984 224.085969 
L 337.836559 224.085969 
z
" clip-path="url(#pcde60c4f52)" style="fill: #0969da"/>
   </g>
   <g id="patch_39">
    <path d="M 343.12984 224.085969 
L 348.423121 224.085969 
L 348.423121 224.085969 
L 343.12984 224.085969 
z
" clip-path="url(#pcde60c4f52)" style="fill: #0969da"/>
   </g>
   <g id="patch_40">
    <path d="M 348.423121 224.085969 
L 353.716401 224.085969 
L 353.716401 198.039414 
L 348.423121 198.039414 
z
" clip-path="url(#pcde60c4f52)" style="fill: #0969da"/>
   </g>
   <g id="patch_41">
    <path d="M 359.009682 224.085969 
L 364.302963 224.085969 
L 364.302963 216.652526 
L 359.009682 216.652526 
z
" clip-path="url(#pcde60c4f52)" style="fill: #0969da"/>
   </g>
   <g id="patch_42">
    <path d="M 369.596243 224.085969 
L 374.889524 224.085969 
L 374.889524 167.303219 
L 369.596243 167.303219 
z
" clip-path="url(#pcde60c4f52)" style="fill: #0969da"/>
   </g>
   <g id="patch_43">
    <path d="M 374.889524 224.085969 
L 380.182804 224.085969 
L 380.182804 104.301908 
L 374.889524 104.301908 
z
" clip-path="url(#pcde60c4f52)" style="fill: #0969da"/>
   </g>
   <g id="patch_44">
    <path d="M 380.182804 224.085969 
L 385.476085 224.085969 
L 385.476085 72.279737 
L 380.182804 72.279737 
z
" clip-path="url(#pcde60c4f52)" style="fill: #0969da"/>
   </g>
   <g id="patch_45">
    <path d="M 385.476085 224.085969 
L 390.769366 224.085969 
L 390.769366 112.146029 
L 385.476085 112.146029 
z
" clip-path="url(#pcde60c4f52)" style="fill: #0969da"/>
   </g>
   <g id="patch_46">
    <path d="M 401.355927 224.085969 
L 406.649208 224.085969 
L 406.649208 118.19647 
L 401.355927 118.19647 
z
" clip-path="url(#pcde60c4f52)" style="fill: #0969da"/>
   </g>
   <g id="patch_47">
    <path d="M 406.649208 224.085969 
L 411.942488 224.085969 
L 411.942488 134.174317 
L 406.649208 134.174317 
z
" clip-path="url(#pcde60c4f52)" style="fill: #0969da"/>
   </g>
   <g id="patch_48">
    <path d="M 411.942488 224.085969 
L 417.235769 224.085969 
L 417.235769 82.710779 
L 411.942488 82.710779 
z
" clip-path="url(#pcde60c4f52)" style="fill: #0969da"/>
   </g>
   <g id="patch_49">
    <path d="M 417.235769 224.085969 
L 422.52905 224.085969 
L 422.52905 118.836074 
L 417.235769 118.836074 
z
" clip-path="url(#pcde60c4f52)" style="fill: #0969da"/>
   </g>
   <g id="patch_50">
    <path d="M 422.52905 224.085969 
L 427.82233 224.085969 
L 427.82233 183.204907 
L 422.52905 183.204907 
z
" clip-path="url(#pcde60c4f52)" style="fill: #0969da"/>
   </g>
   <g id="patch_51">
    <path d="M 433.115611 224.085969 
L 438.408891 224.085969 
L 438.408891 101.408421 
L 433.115611 101.408421 
z
" clip-path="url(#pcde60c4f52)" style="fill: #0969da"/>
   </g>
   <g id="patch_52">
    <path d="M 438.408891 224.085969 
L 443.702172 224.085969 
L 443.702172 62.154613 
L 438.408891 62.154613 
z
" clip-path="url(#pcde60c4f52)" style="fill: #0969da"/>
   </g>
   <g id="patch_53">
    <path d="M 443.702172 224.085969 
L 448.995453 224.085969 
L 448.995453 132.249353 
L 443.702172 132.249353 
z
" clip-path="url(#pcde60c4f52)" style="fill: #0969da"/>
   </g>
   <g id="patch_54">
    <path d="M 448.995453 224.085969 
L 454.288733 224.085969 
L 454.288733 202.326872 
L 448.995453 202.326872 
z
" clip-path="url(#pcde60c4f52)" style="fill: #0969da"/>
   </g>
   <g id="patch_55">
    <path d="M 459.582014 224.085969 
L 464.875295 224.085969 
L 464.875295 217.416334 
L 459.582014 217.416334 
z
" clip-path="url(#pcde60c4f52)" style="fill: #0969da"/>
   </g>
   <g id="patch_56">
    <path d="M 464.875295 224.085969 
L 470.168575 224.085969 
L 470.168575 224.085969 
L 464.875295 224.085969 
z
" clip-path="url(#pcde60c4f52)" style="fill: #0969da"/>
   </g>
   <g id="patch_57">
    <path d="M 470.168575 224.085969 
L 475.461856 224.085969 
L 475.461856 224.085969 
L 470.168575 224.085969 
z
" clip-path="url(#pcde60c4f52)" style="fill: #0969da"/>
   </g>
   <g id="patch_58">
    <path d="M 475.461856 224.085969 
L 480.755136 224.085969 
L 480.755136 224.085969 
L 475.461856 224.085969 
z
" clip-path="url(#pcde60c4f52)" style="fill: #0969da"/>
   </g>
   <g id="patch_59">
    <path d="M 480.755136 224.085969 
L 486.048417 224.085969 
L 486.048417 224.085969 
L 480.755136 224.085969 
z
" clip-path="url(#pcde60c4f52)" style="fill: #0969da"/>
   </g>
   <g id="patch_60">
    <path d="M 486.048417 224.085969 
L 491.341698 224.085969 
L 491.341698 224.085969 
L 486.048417 224.085969 
z
" clip-path="url(#pcde60c4f52)" style="fill: #0969da"/>
   </g>
   <g id="patch_61">
    <path d="M 491.341698 224.085969 
L 496.634978 224.085969 
L 496.634978 224.085969 
L 491.341698 224.085969 
z
" clip-path="url(#pcde60c4f52)" style="fill: #0969da"/>
   </g>
   <g id="patch_62">
    <path d="M 496.634978 224.085969 
L 501.928259 224.085969 
L 501.928259 224.085969 
L 496.634978 224.085969 
z
" clip-path="url(#pcde60c4f52)" style="fill: #0969da"/>
   </g>
   <g id="patch_63">
    <path d="M 501.928259 224.085969 
L 507.22154 224.085969 
L 507.22154 219.781102 
L 501.928259 219.781102 
z
" clip-path="url(#pcde60c4f52)" style="fill: #0969da"/>
   </g>
   <g id="patch_64">
    <path d="M 507.22154 224.085969 
L 512.51482 224.085969 
L 512.51482 162.303718 
L 507.22154 162.303718 
z
" clip-path="url(#pcde60c4f52)" style="fill: #0969da"/>
   </g>
   <g id="patch_65">
    <path d="M 512.51482 224.085969 
L 517.808101 224.085969 
L 517.808101 219.597417 
L 512.51482 219.597417 
z
" clip-path="url(#pcde60c4f52)" style="fill: #0969da"/>
   </g>
   <g id="patch_66">
    <path d="M 517.808101 224.085969 
L 523.101382 224.085969 
L 523.101382 217.790634 
L 517.808101 217.790634 
z
" clip-path="url(#pcde60c4f52)" style="fill: #0969da"/>
   </g>
   <g id="patch_67">
    <path d="M 523.101382 224.085969 
L 528.394662 224.085969 
L 528.394662 224.085969 
L 523.101382 224.085969 
z
" clip-path="url(#pcde60c4f52)" style="fill: #0969da"/>
   </g>
   <g id="patch_68">
    <path d="M 528.394662 224.085969 
L 533.687943 224.085969 
L 533.687943 224.085969 
L 528.394662 224.085969 
z
" clip-path="url(#pcde60c4f52)" style="fill: #0969da"/>
   </g>
   <g id="patch_69">
    <path d="M 533.687943 224.085969 
L 538.981223 224.085969 
L 538.981223 224.085969 
L 533.687943 224.085969 
z
" clip-path="url(#pcde60c4f52)" style="fill: #0969da"/>
   </g>
   <g id="patch_70">
    <path d="M 538.981223 224.085969 
L 544.274504 224.085969 
L 544.274504 224.085969 
L 538.981223 224.085969 
z
" clip-path="url(#pcde60c4f52)" style="fill: #0969da"/>
   </g>
   <g id="patch_71">
    <path d="M 544.274504 224.085969 
L 549.567785 224.085969 
L 549.567785 224.085969 
L 544.274504 224.085969 
z
" clip-path="url(#pcde60c4f52)" style="fill: #0969da"/>
   </g>
   <g id="patch_72">
    <path d="M 549.567785 224.085969 
L 554.861065 224.085969 
L 554.861065 224.085969 
L 549.567785 224.085969 
z
" clip-path="url(#pcde60c4f52)" style="fill: #0969da"/>
   </g>
   <g id="patch_73">
    <path d="M 67.879247 224.085969 
L 73.172528 224.085969 
L 73.172528 224.085969 
L 67.879247 224.085969 
z
" clip-path="url(#pcde60c4f52)" style="fill: #bc4c00"/>
   </g>
   <g id="patch_74">
    <path d="M 73.172528 209.711827 
L 78.465808 209.711827 
L 78.465808 179.821229 
L 73.172528 179.821229 
z
" clip-path="url(#pcde60c4f52)" style="fill: #bc4c00"/>
   </g>
   <g id="patch_75">
    <path d="M 89.05237 153.770709 
L 94.34565 153.770709 
L 94.34565 153.770709 
L 89.05237 153.770709 
z
" clip-path="url(#pcde60c4f52)" style="fill: #bc4c00"/>
   </g>
   <g id="patch_76">
    <path d="M 94.34565 188.152414 
L 99.638931 188.152414 
L 99.638931 188.152414 
L 94.34565 188.152414 
z
" clip-path="url(#pcde60c4f52)" style="fill: #bc4c00"/>
   </g>
   <g id="patch_77">
    <path d="M 99.638931 224.085969 
L 104.932212 224.085969 
L 104.932212 224.085969 
L 99.638931 224.085969 
z
" clip-path="url(#pcde60c4f52)" style="fill: #bc4c00"/>
   </g>
   <g id="patch_78">
    <path d="M 104.932212 224.085969 
L 110.225492 224.085969 
L 110.225492 147.83679 
L 104.932212 147.83679 
z
" clip-path="url(#pcde60c4f52)" style="fill: #bc4c00"/>
   </g>
   <g id="patch_79">
    <path d="M 115.518773 137.658273 
L 120.812053 137.658273 
L 120.812053 137.658273 
L 115.518773 137.658273 
z
" clip-path="url(#pcde60c4f52)" style="fill: #bc4c00"/>
   </g>
   <g id="patch_80">
    <path d="M 120.812053 221.561461 
L 126.105334 221.561461 
L 126.105334 123.033518 
L 120.812053 123.033518 
z
" clip-path="url(#pcde60c4f52)" style="fill: #bc4c00"/>
   </g>
   <g id="patch_81">
    <path d="M 126.105334 212.376179 
L 131.398615 212.376179 
L 131.398615 202.071564 
L 126.105334 202.071564 
z
" clip-path="url(#pcde60c4f52)" style="fill: #bc4c00"/>
   </g>
   <g id="patch_82">
    <path d="M 131.398615 184.673901 
L 136.691895 184.673901 
L 136.691895 136.133698 
L 131.398615 136.133698 
z
" clip-path="url(#pcde60c4f52)" style="fill: #bc4c00"/>
   </g>
   <g id="patch_83">
    <path d="M 136.691895 202.431861 
L 141.985176 202.431861 
L 141.985176 202.431861 
L 136.691895 202.431861 
z
" clip-path="url(#pcde60c4f52)" style="fill: #bc4c00"/>
   </g>
   <g id="patch_84">
    <path d="M 141.985176 159.739082 
L 147.278457 159.739082 
L 147.278457 116.733047 
L 141.985176 116.733047 
z
" clip-path="url(#pcde60c4f52)" style="fill: #bc4c00"/>
   </g>
   <g id="patch_85">
    <path d="M 147.278457 217.446385 
L 152.571737 217.446385 
L 152.571737 90.505975 
L 147.278457 90.505975 
z
" clip-path="url(#pcde60c4f52)" style="fill: #bc4c00"/>
   </g>
   <g id="patch_86">
    <path d="M 152.571737 224.085969 
L 157.865018 224.085969 
L 157.865018 224.085969 
L 152.571737 224.085969 
z
" clip-path="url(#pcde60c4f52)" style="fill: #bc4c00"/>
   </g>
   <g id="patch_87">
    <path d="M 157.865018 132.111775 
L 163.158299 132.111775 
L 163.158299 73.043904 
L 157.865018 73.043904 
z
" clip-path="url(#pcde60c4f52)" style="fill: #bc4c00"/>
   </g>
   <g id="patch_88">
    <path d="M 163.158299 134.710534 
L 168.451579 134.710534 
L 168.451579 76.250942 
L 163.158299 76.250942 
z
" clip-path="url(#pcde60c4f52)" style="fill: #bc4c00"/>
   </g>
   <g id="patch_89">
    <path d="M 168.451579 101.408553 
L 173.74486 101.408553 
L 173.74486 74.68149 
L 168.451579 74.68149 
z
" clip-path="url(#pcde60c4f52)" style="fill: #bc4c00"/>
   </g>
   <g id="patch_90">
    <path d="M 173.74486 221.96661 
L 179.03814 221.96661 
L 179.03814 199.242373 
L 173.74486 199.242373 
z
" clip-path="url(#pcde60c4f52)" style="fill: #bc4c00"/>
   </g>
   <g id="patch_91">
    <path d="M 179.03814 223.957612 
L 184.331421 223.957612 
L 184.331421 96.003811 
L 179.03814 96.003811 
z
" clip-path="url(#pcde60c4f52)" style="fill: #bc4c00"/>
   </g>
   <g id="patch_92">
    <path d="M 184.331421 152.992823 
L 189.624702 152.992823 
L 189.624702 97.912401 
L 184.331421 97.912401 
z
" clip-path="url(#pcde60c4f52)" style="fill: #bc4c00"/>
   </g>
   <g id="patch_93">
    <path d="M 210.797824 224.085969 
L 216.091105 224.085969 
L 216.091105 224.085969 
L 210.797824 224.085969 
z
" clip-path="url(#pcde60c4f52)" style="fill: #bc4c00"/>
   </g>
   <g id="patch_94">
    <path d="M 216.091105 167.542974 
L 221.384385 167.542974 
L 221.384385 167.310765 
L 216.091105 167.310765 
z
" clip-path="url(#pcde60c4f52)" style="fill: #bc4c00"/>
   </g>
   <g id="patch_95">
    <path d="M 226.677666 118.960942 
L 231.970947 118.960942 
L 231.970947 115.915311 
L 226.677666 115.915311 
z
" clip-path="url(#pcde60c4f52)" style="fill: #bc4c00"/>
   </g>
   <g id="patch_96">
    <path d="M 231.970947 81.184387 
L 237.264227 81.184387 
L 237.264227 80.65929 
L 231.970947 80.65929 
z
" clip-path="url(#pcde60c4f52)" style="fill: #bc4c00"/>
   </g>
   <g id="patch_97">
    <path d="M 237.264227 102.132501 
L 242.557508 102.132501 
L 242.557508 101.861235 
L 237.264227 101.861235 
z
" clip-path="url(#pcde60c4f52)" style="fill: #bc4c00"/>
   </g>
   <g id="patch_98">
    <path d="M 258.43735 153.187125 
L 263.730631 153.187125 
L 263.730631 89.011788 
L 258.43735 89.011788 
z
" clip-path="url(#pcde60c4f52)" style="fill: #bc4c00"/>
   </g>
   <g id="patch_99">
    <path d="M 279.610472 175.989031 
L 284.903753 175.989031 
L 284.903753 100.243093 
L 279.610472 100.243093 
z
" clip-path="url(#pcde60c4f52)" style="fill: #bc4c00"/>
   </g>
   <g id="patch_100">
    <path d="M 284.903753 71.873009 
L 290.197034 71.873009 
L 290.197034 71.557768 
L 284.903753 71.557768 
z
" clip-path="url(#pcde60c4f52)" style="fill: #bc4c00"/>
   </g>
   <g id="patch_101">
    <path d="M 290.197034 80.495908 
L 295.490314 80.495908 
L 295.490314 79.451864 
L 290.197034 79.451864 
z
" clip-path="url(#pcde60c4f52)" style="fill: #bc4c00"/>
   </g>
   <g id="patch_102">
    <path d="M 295.490314 144.871234 
L 300.783595 144.871234 
L 300.783595 105.504536 
L 295.490314 105.504536 
z
" clip-path="url(#pcde60c4f52)" style="fill: #bc4c00"/>
   </g>
   <g id="patch_103">
    <path d="M 300.783595 224.085969 
L 306.076876 224.085969 
L 306.076876 224.085969 
L 300.783595 224.085969 
z
" clip-path="url(#pcde60c4f52)" style="fill: #bc4c00"/>
   </g>
   <g id="patch_104">
    <path d="M 311.370156 144.573195 
L 316.663437 144.573195 
L 316.663437 134.861711 
L 311.370156 134.861711 
z
" clip-path="url(#pcde60c4f52)" style="fill: #bc4c00"/>
   </g>
   <g id="patch_105">
    <path d="M 316.663437 216.659404 
L 321.956718 216.659404 
L 321.956718 216.659404 
L 316.663437 216.659404 
z
" clip-path="url(#pcde60c4f52)" style="fill: #bc4c00"/>
   </g>
   <g id="patch_106">
    <path d="M 321.956718 90.923382 
L 327.249998 90.923382 
L 327.249998 58.568331 
L 321.956718 58.568331 
z
" clip-path="url(#pcde60c4f52)" style="fill: #bc4c00"/>
   </g>
   <g id="patch_107">
    <path d="M 332.543279 47.807956 
L 337.836559 47.807956 
L 337.836559 47.807956 
L 332.543279 47.807956 
z
" clip-path="url(#pcde60c4f52)" style="fill: #bc4c00"/>
   </g>
   <g id="patch_108">
    <path d="M 337.836559 224.085969 
L 343.12984 224.085969 
L 343.12984 209.035933 
L 337.836559 209.035933 
z
" clip-path="url(#pcde60c4f52)" style="fill: #bc4c00"/>
   </g>
   <g id="patch_109">
    <path d="M 343.12984 224.085969 
L 348.423121 224.085969 
L 348.423121 123.923546 
L 343.12984 123.923546 
z
" clip-path="url(#pcde60c4f52)" style="fill: #bc4c00"/>
   </g>
   <g id="patch_110">
    <path d="M 348.423121 198.039414 
L 353.716401 198.039414 
L 353.716401 94.946059 
L 348.423121 94.946059 
z
" clip-path="url(#pcde60c4f52)" style="fill: #bc4c00"/>
   </g>
   <g id="patch_111">
    <path d="M 359.009682 216.652526 
L 364.302963 216.652526 
L 364.302963 216.652526 
L 359.009682 216.652526 
z
" clip-path="url(#pcde60c4f52)" style="fill: #bc4c00"/>
   </g>
   <g id="patch_112">
    <path d="M 369.596243 167.303219 
L 374.889524 167.303219 
L 374.889524 80.554618 
L 369.596243 80.554618 
z
" clip-path="url(#pcde60c4f52)" style="fill: #bc4c00"/>
   </g>
   <g id="patch_113">
    <path d="M 374.889524 104.301908 
L 380.182804 104.301908 
L 380.182804 61.833305 
L 374.889524 61.833305 
z
" clip-path="url(#pcde60c4f52)" style="fill: #bc4c00"/>
   </g>
   <g id="patch_114">
    <path d="M 380.182804 72.279737 
L 385.476085 72.279737 
L 385.476085 61.249188 
L 380.182804 61.249188 
z
" clip-path="url(#pcde60c4f52)" style="fill: #bc4c00"/>
   </g>
   <g id="patch_115">
    <path d="M 385.476085 112.146029 
L 390.769366 112.146029 
L 390.769366 87.110778 
L 385.476085 87.110778 
z
" clip-path="url(#pcde60c4f52)" style="fill: #bc4c00"/>
   </g>
   <g id="patch_116">
    <path d="M 401.355927 118.19647 
L 406.649208 118.19647 
L 406.649208 80.810979 
L 401.355927 80.810979 
z
" clip-path="url(#pcde60c4f52)" style="fill: #bc4c00"/>
   </g>
   <g id="patch_117">
    <path d="M 406.649208 134.174317 
L 411.942488 134.174317 
L 411.942488 73.246317 
L 406.649208 73.246317 
z
" clip-path="url(#pcde60c4f52)" style="fill: #bc4c00"/>
   </g>
   <g id="patch_118">
    <path d="M 411.942488 82.710779 
L 417.235769 82.710779 
L 417.235769 53.976399 
L 411.942488 53.976399 
z
" clip-path="url(#pcde60c4f52)" style="fill: #bc4c00"/>
   </g>
   <g id="patch_119">
    <path d="M 417.235769 118.836074 
L 422.52905 118.836074 
L 422.52905 54.862253 
L 417.235769 54.862253 
z
" clip-path="url(#pcde60c4f52)" style="fill: #bc4c00"/>
   </g>
   <g id="patch_120">
    <path d="M 422.52905 183.204907 
L 427.82233 183.204907 
L 427.82233 181.857068 
L 422.52905 181.857068 
z
" clip-path="url(#pcde60c4f52)" style="fill: #bc4c00"/>
   </g>
   <g id="patch_121">
    <path d="M 433.115611 101.408421 
L 438.408891 101.408421 
L 438.408891 64.045992 
L 433.115611 64.045992 
z
" clip-path="url(#pcde60c4f52)" style="fill: #bc4c00"/>
   </g>
   <g id="patch_122">
    <path d="M 438.408891 62.154613 
L 443.702172 62.154613 
L 443.702172 62.154613 
L 438.408891 62.154613 
z
" clip-path="url(#pcde60c4f52)" style="fill: #bc4c00"/>
   </g>
   <g id="patch_123">
    <path d="M 443.702172 132.249353 
L 448.995453 132.249353 
L 448.995453 132.249353 
L 443.702172 132.249353 
z
" clip-path="url(#pcde60c4f52)" style="fill: #bc4c00"/>
   </g>
   <g id="patch_124">
    <path d="M 448.995453 202.326872 
L 454.288733 202.326872 
L 454.288733 201.880233 
L 448.995453 201.880233 
z
" clip-path="url(#pcde60c4f52)" style="fill: #bc4c00"/>
   </g>
   <g id="patch_125">
    <path d="M 459.582014 217.416334 
L 464.875295 217.416334 
L 464.875295 217.416334 
L 459.582014 217.416334 
z
" clip-path="url(#pcde60c4f52)" style="fill: #bc4c00"/>
   </g>
   <g id="patch_126">
    <path d="M 464.875295 224.085969 
L 470.168575 224.085969 
L 470.168575 224.085969 
L 464.875295 224.085969 
z
" clip-path="url(#pcde60c4f52)" style="fill: #bc4c00"/>
   </g>
   <g id="patch_127">
    <path d="M 470.168575 224.085969 
L 475.461856 224.085969 
L 475.461856 224.085969 
L 470.168575 224.085969 
z
" clip-path="url(#pcde60c4f52)" style="fill: #bc4c00"/>
   </g>
   <g id="patch_128">
    <path d="M 475.461856 224.085969 
L 480.755136 224.085969 
L 480.755136 224.085969 
L 475.461856 224.085969 
z
" clip-path="url(#pcde60c4f52)" style="fill: #bc4c00"/>
   </g>
   <g id="patch_129">
    <path d="M 480.755136 224.085969 
L 486.048417 224.085969 
L 486.048417 224.085969 
L 480.755136 224.085969 
z
" clip-path="url(#pcde60c4f52)" style="fill: #bc4c00"/>
   </g>
   <g id="patch_130">
    <path d="M 486.048417 224.085969 
L 491.341698 224.085969 
L 491.341698 224.085969 
L 486.048417 224.085969 
z
" clip-path="url(#pcde60c4f52)" style="fill: #bc4c00"/>
   </g>
   <g id="patch_131">
    <path d="M 491.341698 224.085969 
L 496.634978 224.085969 
L 496.634978 224.085969 
L 491.341698 224.085969 
z
" clip-path="url(#pcde60c4f52)" style="fill: #bc4c00"/>
   </g>
   <g id="patch_132">
    <path d="M 496.634978 224.085969 
L 501.928259 224.085969 
L 501.928259 224.085969 
L 496.634978 224.085969 
z
" clip-path="url(#pcde60c4f52)" style="fill: #bc4c00"/>
   </g>
   <g id="patch_133">
    <path d="M 501.928259 219.781102 
L 507.22154 219.781102 
L 507.22154 219.450752 
L 501.928259 219.450752 
z
" clip-path="url(#pcde60c4f52)" style="fill: #bc4c00"/>
   </g>
   <g id="patch_134">
    <path d="M 507.22154 162.303718 
L 512.51482 162.303718 
L 512.51482 162.181682 
L 507.22154 162.181682 
z
" clip-path="url(#pcde60c4f52)" style="fill: #bc4c00"/>
   </g>
   <g id="patch_135">
    <path d="M 512.51482 219.597417 
L 517.808101 219.597417 
L 517.808101 219.597417 
L 512.51482 219.597417 
z
" clip-path="url(#pcde60c4f52)" style="fill: #bc4c00"/>
   </g>
   <g id="patch_136">
    <path d="M 517.808101 217.790634 
L 523.101382 217.790634 
L 523.101382 217.790634 
L 517.808101 217.790634 
z
" clip-path="url(#pcde60c4f52)" style="fill: #bc4c00"/>
   </g>
   <g id="patch_137">
    <path d="M 523.101382 224.085969 
L 528.394662 224.085969 
L 528.394662 224.085969 
L 523.101382 224.085969 
z
" clip-path="url(#pcde60c4f52)" style="fill: #bc4c00"/>
   </g>
   <g id="patch_138">
    <path d="M 528.394662 224.085969 
L 533.687943 224.085969 
L 533.687943 224.085969 
L 528.394662 224.085969 
z
" clip-path="url(#pcde60c4f52)" style="fill: #bc4c00"/>
   </g>
   <g id="patch_139">
    <path d="M 533.687943 224.085969 
L 538.981223 224.085969 
L 538.981223 224.085969 
L 533.687943 224.085969 
z
" clip-path="url(#pcde60c4f52)" style="fill: #bc4c00"/>
   </g>
   <g id="patch_140">
    <path d="M 538.981223 224.085969 
L 544.274504 224.085969 
L 544.274504 224.085969 
L 538.981223 224.085969 
z
" clip-path="url(#pcde60c4f52)" style="fill: #bc4c00"/>
   </g>
   <g id="patch_141">
    <path d="M 544.274504 224.085969 
L 549.567785 224.085969 
L 549.567785 224.085969 
L 544.274504 224.085969 
z
" clip-path="url(#pcde60c4f52)" style="fill: #bc4c00"/>
   </g>
   <g id="patch_142">
    <path d="M 549.567785 224.085969 
L 554.861065 224.085969 
L 554.861065 224.085969 
L 549.567785 224.085969 
z
" clip-path="url(#pcde60c4f52)" style="fill: #bc4c00"/>
   </g>
   <g id="patch_143">
    <path d="M 67.879247 224.085969 
L 73.172528 224.085969 
L 73.172528 46.677969 
L 67.879247 46.677969 
z
" clip-path="url(#pcde60c4f52)" style="fill: #59636e"/>
   </g>
   <g id="patch_144">
    <path d="M 73.172528 179.821229 
L 78.465808 179.821229 
L 78.465808 46.677969 
L 73.172528 46.677969 
z
" clip-path="url(#pcde60c4f52)" style="fill: #59636e"/>
   </g>
   <g id="patch_145">
    <path d="M 89.05237 153.770709 
L 94.34565 153.770709 
L 94.34565 46.677969 
L 89.05237 46.677969 
z
" clip-path="url(#pcde60c4f52)" style="fill: #59636e"/>
   </g>
   <g id="patch_146">
    <path d="M 94.34565 188.152414 
L 99.638931 188.152414 
L 99.638931 46.677969 
L 94.34565 46.677969 
z
" clip-path="url(#pcde60c4f52)" style="fill: #59636e"/>
   </g>
   <g id="patch_147">
    <path d="M 99.638931 224.085969 
L 104.932212 224.085969 
L 104.932212 46.677969 
L 99.638931 46.677969 
z
" clip-path="url(#pcde60c4f52)" style="fill: #59636e"/>
   </g>
   <g id="patch_148">
    <path d="M 104.932212 147.83679 
L 110.225492 147.83679 
L 110.225492 46.677969 
L 104.932212 46.677969 
z
" clip-path="url(#pcde60c4f52)" style="fill: #59636e"/>
   </g>
   <g id="patch_149">
    <path d="M 115.518773 137.658273 
L 120.812053 137.658273 
L 120.812053 46.677969 
L 115.518773 46.677969 
z
" clip-path="url(#pcde60c4f52)" style="fill: #59636e"/>
   </g>
   <g id="patch_150">
    <path d="M 120.812053 123.033518 
L 126.105334 123.033518 
L 126.105334 46.677969 
L 120.812053 46.677969 
z
" clip-path="url(#pcde60c4f52)" style="fill: #59636e"/>
   </g>
   <g id="patch_151">
    <path d="M 126.105334 202.071564 
L 131.398615 202.071564 
L 131.398615 46.677969 
L 126.105334 46.677969 
z
" clip-path="url(#pcde60c4f52)" style="fill: #59636e"/>
   </g>
   <g id="patch_152">
    <path d="M 131.398615 136.133698 
L 136.691895 136.133698 
L 136.691895 46.677969 
L 131.398615 46.677969 
z
" clip-path="url(#pcde60c4f52)" style="fill: #59636e"/>
   </g>
   <g id="patch_153">
    <path d="M 136.691895 202.431861 
L 141.985176 202.431861 
L 141.985176 46.677969 
L 136.691895 46.677969 
z
" clip-path="url(#pcde60c4f52)" style="fill: #59636e"/>
   </g>
   <g id="patch_154">
    <path d="M 141.985176 116.733047 
L 147.278457 116.733047 
L 147.278457 46.677969 
L 141.985176 46.677969 
z
" clip-path="url(#pcde60c4f52)" style="fill: #59636e"/>
   </g>
   <g id="patch_155">
    <path d="M 147.278457 90.505975 
L 152.571737 90.505975 
L 152.571737 46.677969 
L 147.278457 46.677969 
z
" clip-path="url(#pcde60c4f52)" style="fill: #59636e"/>
   </g>
   <g id="patch_156">
    <path d="M 152.571737 224.085969 
L 157.865018 224.085969 
L 157.865018 46.677969 
L 152.571737 46.677969 
z
" clip-path="url(#pcde60c4f52)" style="fill: #59636e"/>
   </g>
   <g id="patch_157">
    <path d="M 157.865018 73.043904 
L 163.158299 73.043904 
L 163.158299 46.677969 
L 157.865018 46.677969 
z
" clip-path="url(#pcde60c4f52)" style="fill: #59636e"/>
   </g>
   <g id="patch_158">
    <path d="M 163.158299 76.250942 
L 168.451579 76.250942 
L 168.451579 46.677969 
L 163.158299 46.677969 
z
" clip-path="url(#pcde60c4f52)" style="fill: #59636e"/>
   </g>
   <g id="patch_159">
    <path d="M 168.451579 74.68149 
L 173.74486 74.68149 
L 173.74486 46.677969 
L 168.451579 46.677969 
z
" clip-path="url(#pcde60c4f52)" style="fill: #59636e"/>
   </g>
   <g id="patch_160">
    <path d="M 173.74486 199.242373 
L 179.03814 199.242373 
L 179.03814 46.677969 
L 173.74486 46.677969 
z
" clip-path="url(#pcde60c4f52)" style="fill: #59636e"/>
   </g>
   <g id="patch_161">
    <path d="M 179.03814 96.003811 
L 184.331421 96.003811 
L 184.331421 46.677969 
L 179.03814 46.677969 
z
" clip-path="url(#pcde60c4f52)" style="fill: #59636e"/>
   </g>
   <g id="patch_162">
    <path d="M 184.331421 97.912401 
L 189.624702 97.912401 
L 189.624702 46.677969 
L 184.331421 46.677969 
z
" clip-path="url(#pcde60c4f52)" style="fill: #59636e"/>
   </g>
   <g id="patch_163">
    <path d="M 210.797824 224.085969 
L 216.091105 224.085969 
L 216.091105 46.677969 
L 210.797824 46.677969 
z
" clip-path="url(#pcde60c4f52)" style="fill: #59636e"/>
   </g>
   <g id="patch_164">
    <path d="M 216.091105 167.310765 
L 221.384385 167.310765 
L 221.384385 46.677969 
L 216.091105 46.677969 
z
" clip-path="url(#pcde60c4f52)" style="fill: #59636e"/>
   </g>
   <g id="patch_165">
    <path d="M 226.677666 115.915311 
L 231.970947 115.915311 
L 231.970947 46.677969 
L 226.677666 46.677969 
z
" clip-path="url(#pcde60c4f52)" style="fill: #59636e"/>
   </g>
   <g id="patch_166">
    <path d="M 231.970947 80.65929 
L 237.264227 80.65929 
L 237.264227 46.677969 
L 231.970947 46.677969 
z
" clip-path="url(#pcde60c4f52)" style="fill: #59636e"/>
   </g>
   <g id="patch_167">
    <path d="M 237.264227 101.861235 
L 242.557508 101.861235 
L 242.557508 46.677969 
L 237.264227 46.677969 
z
" clip-path="url(#pcde60c4f52)" style="fill: #59636e"/>
   </g>
   <g id="patch_168">
    <path d="M 258.43735 89.011788 
L 263.730631 89.011788 
L 263.730631 46.677969 
L 258.43735 46.677969 
z
" clip-path="url(#pcde60c4f52)" style="fill: #59636e"/>
   </g>
   <g id="patch_169">
    <path d="M 279.610472 100.243093 
L 284.903753 100.243093 
L 284.903753 46.677969 
L 279.610472 46.677969 
z
" clip-path="url(#pcde60c4f52)" style="fill: #59636e"/>
   </g>
   <g id="patch_170">
    <path d="M 284.903753 71.557768 
L 290.197034 71.557768 
L 290.197034 46.677969 
L 284.903753 46.677969 
z
" clip-path="url(#pcde60c4f52)" style="fill: #59636e"/>
   </g>
   <g id="patch_171">
    <path d="M 290.197034 79.451864 
L 295.490314 79.451864 
L 295.490314 46.677969 
L 290.197034 46.677969 
z
" clip-path="url(#pcde60c4f52)" style="fill: #59636e"/>
   </g>
   <g id="patch_172">
    <path d="M 295.490314 105.504536 
L 300.783595 105.504536 
L 300.783595 46.677969 
L 295.490314 46.677969 
z
" clip-path="url(#pcde60c4f52)" style="fill: #59636e"/>
   </g>
   <g id="patch_173">
    <path d="M 300.783595 224.085969 
L 306.076876 224.085969 
L 306.076876 46.677969 
L 300.783595 46.677969 
z
" clip-path="url(#pcde60c4f52)" style="fill: #59636e"/>
   </g>
   <g id="patch_174">
    <path d="M 311.370156 134.861711 
L 316.663437 134.861711 
L 316.663437 46.677969 
L 311.370156 46.677969 
z
" clip-path="url(#pcde60c4f52)" style="fill: #59636e"/>
   </g>
   <g id="patch_175">
    <path d="M 316.663437 216.659404 
L 321.956718 216.659404 
L 321.956718 46.677969 
L 316.663437 46.677969 
z
" clip-path="url(#pcde60c4f52)" style="fill: #59636e"/>
   </g>
   <g id="patch_176">
    <path d="M 321.956718 58.568331 
L 327.249998 58.568331 
L 327.249998 46.677969 
L 321.956718 46.677969 
z
" clip-path="url(#pcde60c4f52)" style="fill: #59636e"/>
   </g>
   <g id="patch_177">
    <path d="M 332.543279 47.807956 
L 337.836559 47.807956 
L 337.836559 46.677969 
L 332.543279 46.677969 
z
" clip-path="url(#pcde60c4f52)" style="fill: #59636e"/>
   </g>
   <g id="patch_178">
    <path d="M 337.836559 209.035933 
L 343.12984 209.035933 
L 343.12984 46.677969 
L 337.836559 46.677969 
z
" clip-path="url(#pcde60c4f52)" style="fill: #59636e"/>
   </g>
   <g id="patch_179">
    <path d="M 343.12984 123.923546 
L 348.423121 123.923546 
L 348.423121 46.677969 
L 343.12984 46.677969 
z
" clip-path="url(#pcde60c4f52)" style="fill: #59636e"/>
   </g>
   <g id="patch_180">
    <path d="M 348.423121 94.946059 
L 353.716401 94.946059 
L 353.716401 46.677969 
L 348.423121 46.677969 
z
" clip-path="url(#pcde60c4f52)" style="fill: #59636e"/>
   </g>
   <g id="patch_181">
    <path d="M 359.009682 216.652526 
L 364.302963 216.652526 
L 364.302963 46.677969 
L 359.009682 46.677969 
z
" clip-path="url(#pcde60c4f52)" style="fill: #59636e"/>
   </g>
   <g id="patch_182">
    <path d="M 369.596243 80.554618 
L 374.889524 80.554618 
L 374.889524 46.677969 
L 369.596243 46.677969 
z
" clip-path="url(#pcde60c4f52)" style="fill: #59636e"/>
   </g>
   <g id="patch_183">
    <path d="M 374.889524 61.833305 
L 380.182804 61.833305 
L 380.182804 46.677969 
L 374.889524 46.677969 
z
" clip-path="url(#pcde60c4f52)" style="fill: #59636e"/>
   </g>
   <g id="patch_184">
    <path d="M 380.182804 61.249188 
L 385.476085 61.249188 
L 385.476085 46.677969 
L 380.182804 46.677969 
z
" clip-path="url(#pcde60c4f52)" style="fill: #59636e"/>
   </g>
   <g id="patch_185">
    <path d="M 385.476085 87.110778 
L 390.769366 87.110778 
L 390.769366 46.677969 
L 385.476085 46.677969 
z
" clip-path="url(#pcde60c4f52)" style="fill: #59636e"/>
   </g>
   <g id="patch_186">
    <path d="M 401.355927 80.810979 
L 406.649208 80.810979 
L 406.649208 46.677969 
L 401.355927 46.677969 
z
" clip-path="url(#pcde60c4f52)" style="fill: #59636e"/>
   </g>
   <g id="patch_187">
    <path d="M 406.649208 73.246317 
L 411.942488 73.246317 
L 411.942488 46.677969 
L 406.649208 46.677969 
z
" clip-path="url(#pcde60c4f52)" style="fill: #59636e"/>
   </g>
   <g id="patch_188">
    <path d="M 411.942488 53.976399 
L 417.235769 53.976399 
L 417.235769 46.677969 
L 411.942488 46.677969 
z
" clip-path="url(#pcde60c4f52)" style="fill: #59636e"/>
   </g>
   <g id="patch_189">
    <path d="M 417.235769 54.862253 
L 422.52905 54.862253 
L 422.52905 46.677969 
L 417.235769 46.677969 
z
" clip-path="url(#pcde60c4f52)" style="fill: #59636e"/>
   </g>
   <g id="patch_190">
    <path d="M 422.52905 181.857068 
L 427.82233 181.857068 
L 427.82233 46.677969 
L 422.52905 46.677969 
z
" clip-path="url(#pcde60c4f52)" style="fill: #59636e"/>
   </g>
   <g id="patch_191">
    <path d="M 433.115611 64.045992 
L 438.408891 64.045992 
L 438.408891 46.677969 
L 433.115611 46.677969 
z
" clip-path="url(#pcde60c4f52)" style="fill: #59636e"/>
   </g>
   <g id="patch_192">
    <path d="M 438.408891 62.154613 
L 443.702172 62.154613 
L 443.702172 46.677969 
L 438.408891 46.677969 
z
" clip-path="url(#pcde60c4f52)" style="fill: #59636e"/>
   </g>
   <g id="patch_193">
    <path d="M 443.702172 132.249353 
L 448.995453 132.249353 
L 448.995453 46.677969 
L 443.702172 46.677969 
z
" clip-path="url(#pcde60c4f52)" style="fill: #59636e"/>
   </g>
   <g id="patch_194">
    <path d="M 448.995453 201.880233 
L 454.288733 201.880233 
L 454.288733 46.677969 
L 448.995453 46.677969 
z
" clip-path="url(#pcde60c4f52)" style="fill: #59636e"/>
   </g>
   <g id="patch_195">
    <path d="M 459.582014 217.416334 
L 464.875295 217.416334 
L 464.875295 46.677969 
L 459.582014 46.677969 
z
" clip-path="url(#pcde60c4f52)" style="fill: #59636e"/>
   </g>
   <g id="patch_196">
    <path d="M 464.875295 224.085969 
L 470.168575 224.085969 
L 470.168575 46.677969 
L 464.875295 46.677969 
z
" clip-path="url(#pcde60c4f52)" style="fill: #59636e"/>
   </g>
   <g id="patch_197">
    <path d="M 470.168575 224.085969 
L 475.461856 224.085969 
L 475.461856 46.677969 
L 470.168575 46.677969 
z
" clip-path="url(#pcde60c4f52)" style="fill: #59636e"/>
   </g>
   <g id="patch_198">
    <path d="M 475.461856 224.085969 
L 480.755136 224.085969 
L 480.755136 46.677969 
L 475.461856 46.677969 
z
" clip-path="url(#pcde60c4f52)" style="fill: #59636e"/>
   </g>
   <g id="patch_199">
    <path d="M 480.755136 224.085969 
L 486.048417 224.085969 
L 486.048417 46.677969 
L 480.755136 46.677969 
z
" clip-path="url(#pcde60c4f52)" style="fill: #59636e"/>
   </g>
   <g id="patch_200">
    <path d="M 486.048417 224.085969 
L 491.341698 224.085969 
L 491.341698 46.677969 
L 486.048417 46.677969 
z
" clip-path="url(#pcde60c4f52)" style="fill: #59636e"/>
   </g>
   <g id="patch_201">
    <path d="M 491.341698 224.085969 
L 496.634978 224.085969 
L 496.634978 46.677969 
L 491.341698 46.677969 
z
" clip-path="url(#pcde60c4f52)" style="fill: #59636e"/>
   </g>
   <g id="patch_202">
    <path d="M 496.634978 224.085969 
L 501.928259 224.085969 
L 501.928259 46.677969 
L 496.634978 46.677969 
z
" clip-path="url(#pcde60c4f52)" style="fill: #59636e"/>
   </g>
   <g id="patch_203">
    <path d="M 501.928259 219.450752 
L 507.22154 219.450752 
L 507.22154 46.677969 
L 501.928259 46.677969 
z
" clip-path="url(#pcde60c4f52)" style="fill: #59636e"/>
   </g>
   <g id="patch_204">
    <path d="M 507.22154 162.181682 
L 512.51482 162.181682 
L 512.51482 46.677969 
L 507.22154 46.677969 
z
" clip-path="url(#pcde60c4f52)" style="fill: #59636e"/>
   </g>
   <g id="patch_205">
    <path d="M 512.51482 219.597417 
L 517.808101 219.597417 
L 517.808101 46.677969 
L 512.51482 46.677969 
z
" clip-path="url(#pcde60c4f52)" style="fill: #59636e"/>
   </g>
   <g id="patch_206">
    <path d="M 517.808101 217.790634 
L 523.101382 217.790634 
L 523.101382 46.677969 
L 517.808101 46.677969 
z
" clip-path="url(#pcde60c4f52)" style="fill: #59636e"/>
   </g>
   <g id="patch_207">
    <path d="M 523.101382 224.085969 
L 528.394662 224.085969 
L 528.394662 46.677969 
L 523.101382 46.677969 
z
" clip-path="url(#pcde60c4f52)" style="fill: #59636e"/>
   </g>
   <g id="patch_208">
    <path d="M 528.394662 224.085969 
L 533.687943 224.085969 
L 533.687943 46.677969 
L 528.394662 46.677969 
z
" clip-path="url(#pcde60c4f52)" style="fill: #59636e"/>
   </g>
   <g id="patch_209">
    <path d="M 533.687943 224.085969 
L 538.981223 224.085969 
L 538.981223 46.677969 
L 533.687943 46.677969 
z
" clip-path="url(#pcde60c4f52)" style="fill: #59636e"/>
   </g>
   <g id="patch_210">
    <path d="M 538.981223 224.085969 
L 544.274504 224.085969 
L 544.274504 46.677969 
L 538.981223 46.677969 
z
" clip-path="url(#pcde60c4f52)" style="fill: #59636e"/>
   </g>
   <g id="patch_211">
    <path d="M 544.274504 224.085969 
L 549.567785 224.085969 
L 549.567785 46.677969 
L 544.274504 46.677969 
z
" clip-path="url(#pcde60c4f52)" style="fill: #59636e"/>
   </g>
   <g id="patch_212">
    <path d="M 549.567785 224.085969 
L 554.861065 224.085969 
L 554.861065 46.677969 
L 549.567785 46.677969 
z
" clip-path="url(#pcde60c4f52)" style="fill: #59636e"/>
   </g>
   <g id="patch_213">
    <path d="M 43.530156 224.085969 
L 43.530156 46.677969 
" style="fill: none; stroke: #d1d9e0; stroke-width: 0.8; stroke-linejoin: miter; stroke-linecap: square"/>
   </g>
   <g id="patch_214">
    <path d="M 43.530156 224.085969 
L 579.210156 224.085969 
" style="fill: none; stroke: #d1d9e0; stroke-width: 0.8; stroke-linejoin: miter; stroke-linecap: square"/>
   </g>
   <g id="text_14">
    <!-- Share of lines changed per active day -->
    <g style="fill: #59636e" transform="translate(43.530156 38.694609) scale(0.09 -0.09)">
     <defs>
      <path id="DejaVuSans-36" d="M 3425 4513 
L 3425 3897 
Q 3066 4069 2747 4153 
Q 2428 4238 2131 4238 
Q 1616 4238 1336 4038 
Q 1056 3838 1056 3469 
Q 1056 3159 1242 3001 
Q 1428 2844 1947 2747 
L 2328 2669 
Q 3034 2534 3370 2195 
Q 3706 1856 3706 1288 
Q 3706 609 3251 259 
Q 2797 -91 1919 -91 
Q 1588 -91 1214 -16 
Q 841 59 441 206 
L 441 856 
Q 825 641 1194 531 
Q 1563 422 1919 422 
Q 2459 422 2753 634 
Q 3047 847 3047 1241 
Q 3047 1584 2836 1778 
Q 2625 1972 2144 2069 
L 1759 2144 
Q 1053 2284 737 2584 
Q 422 2884 422 3419 
Q 422 4038 858 4394 
Q 1294 4750 2059 4750 
Q 2388 4750 2728 4690 
Q 3069 4631 3425 4513 
z
" transform="scale(0.015625)"/>
      <path id="DejaVuSans-4b" d="M 3513 2113 
L 3513 0 
L 2938 0 
L 2938 2094 
Q 2938 2591 2744 2837 
Q 2550 3084 2163 3084 
Q 1697 3084 1428 2787 
Q 1159 2491 1159 1978 
L 1159 0 
L 581 0 
L 581 4863 
L 1159 4863 
L 1159 2956 
Q 1366 3272 1645 3428 
Q 1925 3584 2291 3584 
Q 2894 3584 3203 3211 
Q 3513 2838 3513 2113 
z
" transform="scale(0.015625)"/>
      <path id="DejaVuSans-55" d="M 2631 2963 
Q 2534 3019 2420 3045 
Q 2306 3072 2169 3072 
Q 1681 3072 1420 2755 
Q 1159 2438 1159 1844 
L 1159 0 
L 581 0 
L 581 3500 
L 1159 3500 
L 1159 2956 
Q 1341 3275 1631 3429 
Q 1922 3584 2338 3584 
Q 2397 3584 2469 3576 
Q 2541 3569 2628 3553 
L 2631 2963 
z
" transform="scale(0.015625)"/>
      <path id="DejaVuSans-48" d="M 3597 1894 
L 3597 1613 
L 953 1613 
Q 991 1019 1311 708 
Q 1631 397 2203 397 
Q 2534 397 2845 478 
Q 3156 559 3463 722 
L 3463 178 
Q 3153 47 2828 -22 
Q 2503 -91 2169 -91 
Q 1331 -91 842 396 
Q 353 884 353 1716 
Q 353 2575 817 3079 
Q 1281 3584 2069 3584 
Q 2775 3584 3186 3129 
Q 3597 2675 3597 1894 
z
M 3022 2063 
Q 3016 2534 2758 2815 
Q 2500 3097 2075 3097 
Q 1594 3097 1305 2825 
Q 1016 2553 972 2059 
L 3022 2063 
z
" transform="scale(0.015625)"/>
      <path id="DejaVuSans-52" d="M 1959 3097 
Q 1497 3097 1228 2736 
Q 959 2375 959 1747 
Q 959 1119 1226 758 
Q 1494 397 1959 397 
Q 2419 397 2687 759 
Q 2956 1122 2956 1747 
Q 2956 2369 2687 2733 
Q 2419 3097 1959 3097 
z
M 1959 3584 
Q 2709 3584 3137 3096 
Q 3566 2609 3566 1747 
Q 3566 888 3137 398 
Q 2709 -91 1959 -91 
Q 1206 -91 779 398 
Q 353 888 353 1747 
Q 353 2609 779 3096 
Q 1206 3584 1959 3584 
z
" transform="scale(0.015625)"/>
      <path id="DejaVuSans-49" d="M 2375 4863 
L 2375 4384 
L 1825 4384 
Q 1516 4384 1395 4259 
Q 1275 4134 1275 3809 
L 1275 3500 
L 2222 3500 
L 2222 3053 
L 1275 3053 
L 1275 0 
L 697 0 
L 697 3053 
L 147 3053 
L 147 3500 
L 697 3500 
L 697 3744 
Q 697 4328 969 4595 
Q 1241 4863 1831 4863 
L 2375 4863 
z
" transform="scale(0.015625)"/>
      <path id="DejaVuSans-4c" d="M 603 3500 
L 1178 3500 
L 1178 0 
L 603 0 
L 603 3500 
z
M 603 4863 
L 1178 4863 
L 1178 4134 
L 603 4134 
L 603 4863 
z
" transform="scale(0.015625)"/>
      <path id="DejaVuSans-56" d="M 2834 3397 
L 2834 2853 
Q 2591 2978 2328 3040 
Q 2066 3103 1784 3103 
Q 1356 3103 1142 2972 
Q 928 2841 928 2578 
Q 928 2378 1081 2264 
Q 1234 2150 1697 2047 
L 1894 2003 
Q 2506 1872 2764 1633 
Q 3022 1394 3022 966 
Q 3022 478 2636 193 
Q 2250 -91 1575 -91 
Q 1294 -91 989 -36 
Q 684 19 347 128 
L 347 722 
Q 666 556 975 473 
Q 1284 391 1588 391 
Q 1994 391 2212 530 
Q 2431 669 2431 922 
Q 2431 1156 2273 1281 
Q 2116 1406 1581 1522 
L 1381 1569 
Q 847 1681 609 1914 
Q 372 2147 372 2553 
Q 372 3047 722 3315 
Q 1072 3584 1716 3584 
Q 2034 3584 2315 3537 
Q 2597 3491 2834 3397 
z
" transform="scale(0.015625)"/>
      <path id="DejaVuSans-46" d="M 3122 3366 
L 3122 2828 
Q 2878 2963 2633 3030 
Q 2388 3097 2138 3097 
Q 1578 3097 1268 2742 
Q 959 2388 959 1747 
Q 959 1106 1268 751 
Q 1578 397 2138 397 
Q 2388 397 2633 464 
Q 2878 531 3122 666 
L 3122 134 
Q 2881 22 2623 -34 
Q 2366 -91 2075 -91 
Q 1284 -91 818 406 
Q 353 903 353 1747 
Q 353 2603 823 3093 
Q 1294 3584 2113 3584 
Q 2378 3584 2631 3529 
Q 2884 3475 3122 3366 
z
" transform="scale(0.015625)"/>
      <path id="DejaVuSans-47" d="M 2906 2969 
L 2906 4863 
L 3481 4863 
L 3481 0 
L 2906 0 
L 2906 525 
Q 2725 213 2448 61 
Q 2172 -91 1784 -91 
Q 1150 -91 751 415 
Q 353 922 353 1747 
Q 353 2572 751 3078 
Q 1150 3584 1784 3584 
Q 2172 3584 2448 3432 
Q 2725 3281 2906 2969 
z
M 947 1747 
Q 947 1113 1208 752 
Q 1469 391 1925 391 
Q 2381 391 2643 752 
Q 2906 1113 2906 1747 
Q 2906 2381 2643 2742 
Q 2381 3103 1925 3103 
Q 1469 3103 1208 2742 
Q 947 2381 947 1747 
z
" transform="scale(0.015625)"/>
      <path id="DejaVuSans-53" d="M 1159 525 
L 1159 -1331 
L 581 -1331 
L 581 3500 
L 1159 3500 
L 1159 2969 
Q 1341 3281 1617 3432 
Q 1894 3584 2278 3584 
Q 2916 3584 3314 3078 
Q 3713 2572 3713 1747 
Q 3713 922 3314 415 
Q 2916 -91 2278 -91 
Q 1894 -91 1617 61 
Q 1341 213 1159 525 
z
M 3116 1747 
Q 3116 2381 2855 2742 
Q 2594 3103 2138 3103 
Q 1681 3103 1420 2742 
Q 1159 2381 1159 1747 
Q 1159 1113 1420 752 
Q 1681 391 2138 391 
Q 2594 391 2855 752 
Q 3116 1113 3116 1747 
z
" transform="scale(0.015625)"/>
      <path id="DejaVuSans-57" d="M 1172 4494 
L 1172 3500 
L 2356 3500 
L 2356 3053 
L 1172 3053 
L 1172 1153 
Q 1172 725 1289 603 
Q 1406 481 1766 481 
L 2356 481 
L 2356 0 
L 1766 0 
Q 1100 0 847 248 
Q 594 497 594 1153 
L 594 3053 
L 172 3053 
L 172 3500 
L 594 3500 
L 594 4494 
L 1172 4494 
z
" transform="scale(0.015625)"/>
      <path id="DejaVuSans-59" d="M 191 3500 
L 800 3500 
L 1894 563 
L 2988 3500 
L 3597 3500 
L 2284 0 
L 1503 0 
L 191 3500 
z
" transform="scale(0.015625)"/>
     </defs>
     <use xlink:href="#DejaVuSans-36"/>
     <use xlink:href="#DejaVuSans-4b" transform="translate(63.484375 0)"/>
     <use xlink:href="#DejaVuSans-44" transform="translate(126.859375 0)"/>
     <use xlink:href="#DejaVuSans-55" transform="translate(188.140625 0)"/>
     <use xlink:href="#DejaVuSans-48" transform="translate(227.046875 0)"/>
     <use xlink:href="#DejaVuSans-3" transform="translate(288.578125 0)"/>
     <use xlink:href="#DejaVuSans-52" transform="translate(320.359375 0)"/>
     <use xlink:href="#DejaVuSans-49" transform="translate(381.546875 0)"/>
     <use xlink:href="#DejaVuSans-3" transform="translate(416.75 0)"/>
     <use xlink:href="#DejaVuSans-4f" transform="translate(448.53125 0)"/>
     <use xlink:href="#DejaVuSans-4c" transform="translate(476.3125 0)"/>
     <use xlink:href="#DejaVuSans-51" transform="translate(504.09375 0)"/>
     <use xlink:href="#DejaVuSans-48" transform="translate(567.46875 0)"/>
     <use xlink:href="#DejaVuSans-56" transform="translate(629 0)"/>
     <use xlink:href="#DejaVuSans-3" transform="translate(681.09375 0)"/>
     <use xlink:href="#DejaVuSans-46" transform="translate(712.875 0)"/>
     <use xlink:href="#DejaVuSans-4b" transform="translate(767.859375 0)"/>
     <use xlink:href="#DejaVuSans-44" transform="translate(831.234375 0)"/>
     <use xlink:href="#DejaVuSans-51" transform="translate(892.515625 0)"/>
     <use xlink:href="#DejaVuSans-4a" transform="translate(955.890625 0)"/>
     <use xlink:href="#DejaVuSans-48" transform="translate(1019.375 0)"/>
     <use xlink:href="#DejaVuSans-47" transform="translate(1080.90625 0)"/>
     <use xlink:href="#DejaVuSans-3" transform="translate(1144.390625 0)"/>
     <use xlink:href="#DejaVuSans-53" transform="translate(1176.171875 0)"/>
     <use xlink:href="#DejaVuSans-48" transform="translate(1239.65625 0)"/>
     <use xlink:href="#DejaVuSans-55" transform="translate(1301.1875 0)"/>
     <use xlink:href="#DejaVuSans-3" transform="translate(1342.296875 0)"/>
     <use xlink:href="#DejaVuSans-44" transform="translate(1374.078125 0)"/>
     <use xlink:href="#DejaVuSans-46" transform="translate(1435.359375 0)"/>
     <use xlink:href="#DejaVuSans-57" transform="translate(1490.34375 0)"/>
     <use xlink:href="#DejaVuSans-4c" transform="translate(1529.546875 0)"/>
     <use xlink:href="#DejaVuSans-59" transform="translate(1557.328125 0)"/>
     <use xlink:href="#DejaVuSans-48" transform="translate(1616.515625 0)"/>
     <use xlink:href="#DejaVuSans-3" transform="translate(1678.046875 0)"/>
     <use xlink:href="#DejaVuSans-47" transform="translate(1709.828125 0)"/>
     <use xlink:href="#DejaVuSans-44" transform="translate(1773.3125 0)"/>
     <use xlink:href="#DejaVuSans-5c" transform="translate(1834.59375 0)"/>
    </g>
   </g>
   <g id="text_15">
    <!-- Focus — backend vs frontend -->
    <g style="fill: #1f2328" transform="translate(43.530156 20.677969) scale(0.13 -0.13)">
     <defs>
      <path id="DejaVuSans-Bold-29" d="M 588 4666 
L 3834 4666 
L 3834 3756 
L 1791 3756 
L 1791 2888 
L 3713 2888 
L 3713 1978 
L 1791 1978 
L 1791 0 
L 588 0 
L 588 4666 
z
" transform="scale(0.015625)"/>
      <path id="DejaVuSans-Bold-52" d="M 2203 2784 
Q 1831 2784 1636 2517 
Q 1441 2250 1441 1747 
Q 1441 1244 1636 976 
Q 1831 709 2203 709 
Q 2569 709 2762 976 
Q 2956 1244 2956 1747 
Q 2956 2250 2762 2517 
Q 2569 2784 2203 2784 
z
M 2203 3584 
Q 3106 3584 3614 3096 
Q 4122 2609 4122 1747 
Q 4122 884 3614 396 
Q 3106 -91 2203 -91 
Q 1297 -91 786 396 
Q 275 884 275 1747 
Q 275 2609 786 3096 
Q 1297 3584 2203 3584 
z
" transform="scale(0.015625)"/>
      <path id="DejaVuSans-Bold-46" d="M 3366 3391 
L 3366 2478 
Q 3138 2634 2908 2709 
Q 2678 2784 2431 2784 
Q 1963 2784 1702 2511 
Q 1441 2238 1441 1747 
Q 1441 1256 1702 982 
Q 1963 709 2431 709 
Q 2694 709 2930 787 
Q 3166 866 3366 1019 
L 3366 103 
Q 3103 6 2833 -42 
Q 2563 -91 2291 -91 
Q 1344 -91 809 395 
Q 275 881 275 1747 
Q 275 2613 809 3098 
Q 1344 3584 2291 3584 
Q 2566 3584 2833 3536 
Q 3100 3488 3366 3391 
z
" transform="scale(0.015625)"/>
      <path id="DejaVuSans-Bold-58" d="M 500 1363 
L 500 3500 
L 1625 3500 
L 1625 3150 
Q 1625 2866 1622 2436 
Q 1619 2006 1619 1863 
Q 1619 1441 1641 1255 
Q 1663 1069 1716 984 
Q 1784 875 1895 815 
Q 2006 756 2150 756 
Q 2500 756 2700 1025 
Q 2900 1294 2900 1772 
L 2900 3500 
L 4019 3500 
L 4019 0 
L 2900 0 
L 2900 506 
Q 2647 200 2364 54 
Q 2081 -91 1741 -91 
Q 1134 -91 817 281 
Q 500 653 500 1363 
z
" transform="scale(0.015625)"/>
      <path id="DejaVuSans-Bold-56" d="M 3272 3391 
L 3272 2541 
Q 2913 2691 2578 2766 
Q 2244 2841 1947 2841 
Q 1628 2841 1473 2761 
Q 1319 2681 1319 2516 
Q 1319 2381 1436 2309 
Q 1553 2238 1856 2203 
L 2053 2175 
Q 2913 2066 3209 1816 
Q 3506 1566 3506 1031 
Q 3506 472 3093 190 
Q 2681 -91 1863 -91 
Q 1516 -91 1145 -36 
Q 775 19 384 128 
L 384 978 
Q 719 816 1070 734 
Q 1422 653 1784 653 
Q 2113 653 2278 743 
Q 2444 834 2444 1013 
Q 2444 1163 2330 1236 
Q 2216 1309 1875 1350 
L 1678 1375 
Q 931 1469 631 1722 
Q 331 1975 331 2491 
Q 331 3047 712 3315 
Q 1094 3584 1881 3584 
Q 2191 3584 2531 3537 
Q 2872 3491 3272 3391 
z
" transform="scale(0.015625)"/>
      <path id="DejaVuSans-Bold-3" transform="scale(0.015625)"/>
      <path id="DejaVuSans-Bold-af6" d="M 344 2156 
L 6056 2156 
L 6056 1350 
L 344 1350 
L 344 2156 
z
" transform="scale(0.015625)"/>
      <path id="DejaVuSans-Bold-45" d="M 2400 722 
Q 2759 722 2948 984 
Q 3138 1247 3138 1747 
Q 3138 2247 2948 2509 
Q 2759 2772 2400 2772 
Q 2041 2772 1848 2508 
Q 1656 2244 1656 1747 
Q 1656 1250 1848 986 
Q 2041 722 2400 722 
z
M 1656 2988 
Q 1888 3294 2169 3439 
Q 2450 3584 2816 3584 
Q 3463 3584 3878 3070 
Q 4294 2556 4294 1747 
Q 4294 938 3878 423 
Q 3463 -91 2816 -91 
Q 2450 -91 2169 54 
Q 1888 200 1656 506 
L 1656 0 
L 538 0 
L 538 4863 
L 1656 4863 
L 1656 2988 
z
" transform="scale(0.015625)"/>
      <path id="DejaVuSans-Bold-44" d="M 2106 1575 
Q 1756 1575 1579 1456 
Q 1403 1338 1403 1106 
Q 1403 894 1545 773 
Q 1688 653 1941 653 
Q 2256 653 2472 879 
Q 2688 1106 2688 1447 
L 2688 1575 
L 2106 1575 
z
M 3816 1997 
L 3816 0 
L 2688 0 
L 2688 519 
Q 2463 200 2181 54 
Q 1900 -91 1497 -91 
Q 953 -91 614 226 
Q 275 544 275 1050 
Q 275 1666 698 1953 
Q 1122 2241 2028 2241 
L 2688 2241 
L 2688 2328 
Q 2688 2594 2478 2717 
Q 2269 2841 1825 2841 
Q 1466 2841 1156 2769 
Q 847 2697 581 2553 
L 581 3406 
Q 941 3494 1303 3539 
Q 1666 3584 2028 3584 
Q 2975 3584 3395 3211 
Q 3816 2838 3816 1997 
z
" transform="scale(0.015625)"/>
      <path id="DejaVuSans-Bold-4e" d="M 538 4863 
L 1656 4863 
L 1656 2216 
L 2944 3500 
L 4244 3500 
L 2534 1894 
L 4378 0 
L 3022 0 
L 1656 1459 
L 1656 0 
L 538 0 
L 538 4863 
z
" transform="scale(0.015625)"/>
      <path id="DejaVuSans-Bold-48" d="M 4031 1759 
L 4031 1441 
L 1416 1441 
Q 1456 1047 1700 850 
Q 1944 653 2381 653 
Q 2734 653 3104 758 
Q 3475 863 3866 1075 
L 3866 213 
Q 3469 63 3072 -14 
Q 2675 -91 2278 -91 
Q 1328 -91 801 392 
Q 275 875 275 1747 
Q 275 2603 792 3093 
Q 1309 3584 2216 3584 
Q 3041 3584 3536 3087 
Q 4031 2591 4031 1759 
z
M 2881 2131 
Q 2881 2450 2695 2645 
Q 2509 2841 2209 2841 
Q 1884 2841 1681 2658 
Q 1478 2475 1428 2131 
L 2881 2131 
z
" transform="scale(0.015625)"/>
      <path id="DejaVuSans-Bold-51" d="M 4056 2131 
L 4056 0 
L 2931 0 
L 2931 347 
L 2931 1631 
Q 2931 2084 2911 2256 
Q 2891 2428 2841 2509 
Q 2775 2619 2662 2680 
Q 2550 2741 2406 2741 
Q 2056 2741 1856 2470 
Q 1656 2200 1656 1722 
L 1656 0 
L 538 0 
L 538 3500 
L 1656 3500 
L 1656 2988 
Q 1909 3294 2193 3439 
Q 2478 3584 2822 3584 
Q 3428 3584 3742 3212 
Q 4056 2841 4056 2131 
z
" transform="scale(0.015625)"/>
      <path id="DejaVuSans-Bold-47" d="M 2919 2988 
L 2919 4863 
L 4044 4863 
L 4044 0 
L 2919 0 
L 2919 506 
Q 2688 197 2409 53 
Q 2131 -91 1766 -91 
Q 1119 -91 703 423 
Q 288 938 288 1747 
Q 288 2556 703 3070 
Q 1119 3584 1766 3584 
Q 2128 3584 2408 3439 
Q 2688 3294 2919 2988 
z
M 2181 722 
Q 2541 722 2730 984 
Q 2919 1247 2919 1747 
Q 2919 2247 2730 2509 
Q 2541 2772 2181 2772 
Q 1825 2772 1636 2509 
Q 1447 2247 1447 1747 
Q 1447 1247 1636 984 
Q 1825 722 2181 722 
z
" transform="scale(0.015625)"/>
      <path id="DejaVuSans-Bold-59" d="M 97 3500 
L 1216 3500 
L 2088 1081 
L 2956 3500 
L 4078 3500 
L 2700 0 
L 1472 0 
L 97 3500 
z
" transform="scale(0.015625)"/>
      <path id="DejaVuSans-Bold-49" d="M 2841 4863 
L 2841 4128 
L 2222 4128 
Q 1984 4128 1890 4042 
Q 1797 3956 1797 3744 
L 1797 3500 
L 2753 3500 
L 2753 2700 
L 1797 2700 
L 1797 0 
L 678 0 
L 678 2700 
L 122 2700 
L 122 3500 
L 678 3500 
L 678 3744 
Q 678 4316 997 4589 
Q 1316 4863 1984 4863 
L 2841 4863 
z
" transform="scale(0.015625)"/>
      <path id="DejaVuSans-Bold-55" d="M 3138 2547 
Q 2991 2616 2845 2648 
Q 2700 2681 2553 2681 
Q 2122 2681 1889 2404 
Q 1656 2128 1656 1613 
L 1656 0 
L 538 0 
L 538 3500 
L 1656 3500 
L 1656 2925 
Q 1872 3269 2151 3426 
Q 2431 3584 2822 3584 
Q 2878 3584 2943 3579 
Q 3009 3575 3134 3559 
L 3138 2547 
z
" transform="scale(0.015625)"/>
      <path id="DejaVuSans-Bold-57" d="M 1759 4494 
L 1759 3500 
L 2913 3500 
L 2913 2700 
L 1759 2700 
L 1759 1216 
Q 1759 972 1856 886 
Q 1953 800 2241 800 
L 2816 800 
L 2816 0 
L 1856 0 
Q 1194 0 917 276 
Q 641 553 641 1216 
L 641 2700 
L 84 2700 
L 84 3500 
L 641 3500 
L 641 4494 
L 1759 4494 
z
" transform="scale(0.015625)"/>
     </defs>
     <use xlink:href="#DejaVuSans-Bold-29"/>
     <use xlink:href="#DejaVuSans-Bold-52" transform="translate(64.265625 0)"/>
     <use xlink:href="#DejaVuSans-Bold-46" transform="translate(132.96875 0)"/>
     <use xlink:href="#DejaVuSans-Bold-58" transform="translate(192.25 0)"/>
     <use xlink:href="#DejaVuSans-Bold-56" transform="translate(263.4375 0)"/>
     <use xlink:href="#DejaVuSans-Bold-3" transform="translate(322.953125 0)"/>
     <use xlink:href="#DejaVuSans-Bold-af6" transform="translate(357.765625 0)"/>
     <use xlink:href="#DejaVuSans-Bold-3" transform="translate(457.765625 0)"/>
     <use xlink:href="#DejaVuSans-Bold-45" transform="translate(492.578125 0)"/>
     <use xlink:href="#DejaVuSans-Bold-44" transform="translate(564.15625 0)"/>
     <use xlink:href="#DejaVuSans-Bold-46" transform="translate(631.640625 0)"/>
     <use xlink:href="#DejaVuSans-Bold-4e" transform="translate(690.921875 0)"/>
     <use xlink:href="#DejaVuSans-Bold-48" transform="translate(754.734375 0)"/>
     <use xlink:href="#DejaVuSans-Bold-51" transform="translate(822.5625 0)"/>
     <use xlink:href="#DejaVuSans-Bold-47" transform="translate(893.75 0)"/>
     <use xlink:href="#DejaVuSans-Bold-3" transform="translate(965.328125 0)"/>
     <use xlink:href="#DejaVuSans-Bold-59" transform="translate(1000.140625 0)"/>
     <use xlink:href="#DejaVuSans-Bold-56" transform="translate(1065.328125 0)"/>
     <use xlink:href="#DejaVuSans-Bold-3" transform="translate(1124.84375 0)"/>
     <use xlink:href="#DejaVuSans-Bold-49" transform="translate(1159.65625 0)"/>
     <use xlink:href="#DejaVuSans-Bold-55" transform="translate(1203.15625 0)"/>
     <use xlink:href="#DejaVuSans-Bold-52" transform="translate(1252.46875 0)"/>
     <use xlink:href="#DejaVuSans-Bold-51" transform="translate(1321.171875 0)"/>
     <use xlink:href="#DejaVuSans-Bold-57" transform="translate(1392.359375 0)"/>
     <use xlink:href="#DejaVuSans-Bold-48" transform="translate(1440.15625 0)"/>
     <use xlink:href="#DejaVuSans-Bold-51" transform="translate(1507.984375 0)"/>
     <use xlink:href="#DejaVuSans-Bold-47" transform="translate(1579.171875 0)"/>
    </g>
   </g>
   <g id="legend_1">
    <g id="patch_215">
     <path d="M 332.369687 41.815859 
L 350.369687 41.815859 
L 350.369687 35.515859 
L 332.369687 35.515859 
z
" style="fill: #0969da"/>
    </g>
    <g id="text_16">
     <!-- Backend -->
     <g style="fill: #59636e" transform="translate(357.569687 41.815859) scale(0.09 -0.09)">
      <defs>
       <path id="DejaVuSans-25" d="M 1259 2228 
L 1259 519 
L 2272 519 
Q 2781 519 3026 730 
Q 3272 941 3272 1375 
Q 3272 1813 3026 2020 
Q 2781 2228 2272 2228 
L 1259 2228 
z
M 1259 4147 
L 1259 2741 
L 2194 2741 
Q 2656 2741 2882 2914 
Q 3109 3088 3109 3444 
Q 3109 3797 2882 3972 
Q 2656 4147 2194 4147 
L 1259 4147 
z
M 628 4666 
L 2241 4666 
Q 2963 4666 3353 4366 
Q 3744 4066 3744 3513 
Q 3744 3084 3544 2831 
Q 3344 2578 2956 2516 
Q 3422 2416 3680 2098 
Q 3938 1781 3938 1306 
Q 3938 681 3513 340 
Q 3088 0 2303 0 
L 628 0 
L 628 4666 
z
" transform="scale(0.015625)"/>
       <path id="DejaVuSans-4e" d="M 581 4863 
L 1159 4863 
L 1159 1991 
L 2875 3500 
L 3609 3500 
L 1753 1863 
L 3688 0 
L 2938 0 
L 1159 1709 
L 1159 0 
L 581 0 
L 581 4863 
z
" transform="scale(0.015625)"/>
      </defs>
      <use xlink:href="#DejaVuSans-25"/>
      <use xlink:href="#DejaVuSans-44" transform="translate(68.609375 0)"/>
      <use xlink:href="#DejaVuSans-46" transform="translate(129.890625 0)"/>
      <use xlink:href="#DejaVuSans-4e" transform="translate(184.875 0)"/>
      <use xlink:href="#DejaVuSans-48" transform="translate(239.21875 0)"/>
      <use xlink:href="#DejaVuSans-51" transform="translate(300.75 0)"/>
      <use xlink:href="#DejaVuSans-47" transform="translate(364.125 0)"/>
     </g>
    </g>
    <g id="patch_216">
     <path d="M 414.054531 41.815859 
L 432.054531 41.815859 
L 432.054531 35.515859 
L 414.054531 35.515859 
z
" style="fill: #bc4c00"/>
    </g>
    <g id="text_17">
     <!-- Frontend -->
     <g style="fill: #59636e" transform="translate(439.254531 41.815859) scale(0.09 -0.09)">
      <defs>
       <path id="DejaVuSans-29" d="M 628 4666 
L 3309 4666 
L 3309 4134 
L 1259 4134 
L 1259 2759 
L 3109 2759 
L 3109 2228 
L 1259 2228 
L 1259 0 
L 628 0 
L 628 4666 
z
" transform="scale(0.015625)"/>
      </defs>
      <use xlink:href="#DejaVuSans-29"/>
      <use xlink:href="#DejaVuSans-55" transform="translate(50.234375 0)"/>
      <use xlink:href="#DejaVuSans-52" transform="translate(89.140625 0)"/>
      <use xlink:href="#DejaVuSans-51" transform="translate(150.328125 0)"/>
      <use xlink:href="#DejaVuSans-57" transform="translate(213.703125 0)"/>
      <use xlink:href="#DejaVuSans-48" transform="translate(252.90625 0)"/>
      <use xlink:href="#DejaVuSans-51" transform="translate(314.4375 0)"/>
      <use xlink:href="#DejaVuSans-47" transform="translate(377.8125 0)"/>
     </g>
    </g>
    <g id="patch_217">
     <path d="M 496.97125 41.815859 
L 514.97125 41.815859 
L 514.97125 35.515859 
L 496.97125 35.515859 
z
" style="fill: #59636e"/>
    </g>
    <g id="text_18">
     <!-- Infra &amp; docs -->
     <g style="fill: #59636e" transform="translate(522.17125 41.815859) scale(0.09 -0.09)">
      <defs>
       <path id="DejaVuSans-2c" d="M 628 4666 
L 1259 4666 
L 1259 0 
L 628 0 
L 628 4666 
z
" transform="scale(0.015625)"/>
       <path id="DejaVuSans-9" d="M 1556 2509 
Q 1272 2256 1139 2004 
Q 1006 1753 1006 1478 
Q 1006 1022 1337 719 
Q 1669 416 2169 416 
Q 2466 416 2725 514 
Q 2984 613 3213 813 
L 1556 2509 
z
M 1997 2859 
L 3584 1234 
Q 3769 1513 3872 1830 
Q 3975 2147 3994 2503 
L 4575 2503 
Q 4538 2091 4375 1687 
Q 4213 1284 3922 891 
L 4794 0 
L 4006 0 
L 3559 459 
Q 3234 181 2878 45 
Q 2522 -91 2113 -91 
Q 1359 -91 881 339 
Q 403 769 403 1441 
Q 403 1841 612 2192 
Q 822 2544 1241 2853 
Q 1091 3050 1012 3245 
Q 934 3441 934 3628 
Q 934 4134 1281 4442 
Q 1628 4750 2203 4750 
Q 2463 4750 2720 4694 
Q 2978 4638 3244 4525 
L 3244 3956 
Q 2972 4103 2725 4179 
Q 2478 4256 2266 4256 
Q 1938 4256 1733 4082 
Q 1528 3909 1528 3634 
Q 1528 3475 1620 3314 
Q 1713 3153 1997 2859 
z
" transform="scale(0.015625)"/>
      </defs>
      <use xlink:href="#DejaVuSans-2c"/>
      <use xlink:href="#DejaVuSans-51" transform="translate(29.5 0)"/>
      <use xlink:href="#DejaVuSans-49" transform="translate(92.875 0)"/>
      <use xlink:href="#DejaVuSans-55" transform="translate(128.078125 0)"/>
      <use xlink:href="#DejaVuSans-44" transform="translate(169.1875 0)"/>
      <use xlink:href="#DejaVuSans-3" transform="translate(230.46875 0)"/>
      <use xlink:href="#DejaVuSans-9" transform="translate(262.25 0)"/>
      <use xlink:href="#DejaVuSans-3" transform="translate(340.234375 0)"/>
      <use xlink:href="#DejaVuSans-47" transform="translate(372.015625 0)"/>
      <use xlink:href="#DejaVuSans-52" transform="translate(435.5 0)"/>
      <use xlink:href="#DejaVuSans-46" transform="translate(496.6875 0)"/>
      <use xlink:href="#DejaVuSans-56" transform="translate(551.671875 0)"/>
     </g>
    </g>
   </g>
  </g>
 </g>
 <defs>
  <clipPath id="pcde60c4f52">
   <rect x="43.530156" y="46.677969" width="535.68" height="177.408"/>
  </clipPath>
 </defs>
</svg>
