<?xml version="1.0" encoding="utf-8" standalone="no"?>
<!DOCTYPE svg PUBLIC "-//W3C//DTD SVG 1.1//EN"
  "http://www.w3.org/Graphics/SVG/1.1/DTD/svg11.dtd">
<svg xmlns:xlink="http://www.w3.org/1999/xlink" width="575.7325pt" height="205.622672pt" viewBox="0 0 575.7325 205.622672" xmlns="http://www.w3.org/2000/svg" version="1.1">
 <metadata>
  <rdf:RDF xmlns:dc="http://purl.org/dc/elements/1.1/" xmlns:cc="http://creativecommons.org/ns#" xmlns:rdf="http://www.w3.org/1999/02/22-rdf-syntax-ns#">
   <cc:Work>
    <dc:type rdf:resource="http://purl.org/dc/dcmitype/StillImage"/>
    <dc:date>2026-08-07T04:51:43.300048</dc:date>
    <dc:format>image/svg+xml</dc:format>
    <dc:creator>
     <cc:Agent>
      <dc:title>Matplotlib v3.11.1, https://matplotlib.org/</dc:title>
     </cc:Agent>
    </dc:creator>
   </cc:Work>
  </rdf:RDF>
 </metadata>
 <defs>
  <style type="text/css">*{stroke-linejoin: round; stroke-linecap: butt}</style>
 </defs>
 <g id="figure_1">
  <g id="patch_1">
   <path d="M 0 205.622672 
L 575.7325 205.622672 
L 575.7325 0 
L 0 0 
L 0 205.622672 
z
" style="fill: none; opacity: 0"/>
  </g>
  <g id="axes_1">
   <g id="patch_2">
    <path d="M 29.2525 178.821969 
L 564.9325 178.821969 
L 564.9325 34.677969 
L 29.2525 34.677969 
L 29.2525 178.821969 
z
" style="fill: none"/>
   </g>
   <g id="matplotlib.axis_1">
    <g id="xtick_1">
     <g id="line2d_1">
      <defs>
       <path id="mabfa579fe0" d="M 0 0 
L 0 3.5 
" style="stroke: #9198a1; stroke-width: 0.8"/>
      </defs>
      <g>
       <use xlink:href="#mabfa579fe0" x="75.007385" y="178.821969" style="fill: #9198a1; stroke: #9198a1; stroke-width: 0.8"/>
      </g>
     </g>
     <g id="text_1">
      <!-- May 11 -->
      <g style="fill: #9198a1" transform="translate(58.547229 192.659859) scale(0.09 -0.09)">
       <defs>
        <path id="DejaVuSans-30" d="M 628 4666 
L 1569 4666 
L 2759 1491 
L 3956 4666 
L 4897 4666 
L 4897 0 
L 4281 0 
L 4281 4097 
L 3078 897 
L 2444 897 
L 1241 4097 
L 1241 0 
L 628 0 
L 628 4666 
z
" transform="scale(0.015625)"/>
        <path id="DejaVuSans-44" d="M 2194 1759 
Q 1497 1759 1228 1600 
Q 959 1441 959 1056 
Q 959 750 1161 570 
Q 1363 391 1709 391 
Q 2188 391 2477 730 
Q 2766 1069 2766 1631 
L 2766 1759 
L 2194 1759 
z
M 3341 1997 
L 3341 0 
L 2766 0 
L 2766 531 
Q 2569 213 2275 61 
Q 1981 -91 1556 -91 
Q 1019 -91 701 211 
Q 384 513 384 1019 
Q 384 1609 779 1909 
Q 1175 2209 1959 2209 
L 2766 2209 
L 2766 2266 
Q 2766 2663 2505 2880 
Q 2244 3097 1772 3097 
Q 1472 3097 1187 3025 
Q 903 2953 641 2809 
L 641 3341 
Q 956 3463 1253 3523 
Q 1550 3584 1831 3584 
Q 2591 3584 2966 3190 
Q 3341 2797 3341 1997 
z
" transform="scale(0.015625)"/>
        <path id="DejaVuSans-5c" d="M 2059 -325 
Q 1816 -950 1584 -1140 
Q 1353 -1331 966 -1331 
L 506 -1331 
L 506 -850 
L 844 -850 
Q 1081 -850 1212 -737 
Q 1344 -625 1503 -206 
L 1606 56 
L 191 3500 
L 800 3500 
L 1894 763 
L 2988 3500 
L 3597 3500 
L 2059 -325 
z
" transform="scale(0.015625)"/>
        <path id="DejaVuSans-3" transform="scale(0.015625)"/>
        <path id="DejaVuSans-14" d="M 794 531 
L 1825 531 
L 1825 4091 
L 703 3866 
L 703 4441 
L 1819 4666 
L 2450 4666 
L 2450 531 
L 3481 531 
L 3481 0 
L 794 0 
L 794 531 
z
" transform="scale(0.015625)"/>
       </defs>
       <use xlink:href="#DejaVuSans-30"/>
       <use xlink:href="#DejaVuSans-44" transform="translate(86.28125 0)"/>
       <use xlink:href="#DejaVuSans-5c" transform="translate(147.5625 0)"/>
       <use xlink:href="#DejaVuSans-3" transform="translate(206.75 0)"/>
       <use xlink:href="#DejaVuSans-14" transform="translate(238.53125 0)"/>
       <use xlink:href="#DejaVuSans-14" transform="translate(302.15625 0)"/>
      </g>
     </g>
    </g>
    <g id="xtick_2">
     <g id="line2d_2">
      <g>
       <use xlink:href="#mabfa579fe0" x="149.927665" y="178.821969" style="fill: #9198a1; stroke: #9198a1; stroke-width: 0.8"/>
      </g>
     </g>
     <g id="text_2">
      <!-- May 25 -->
      <g style="fill: #9198a1" transform="translate(133.467509 192.659859) scale(0.09 -0.09)">
       <defs>
        <path id="DejaVuSans-15" d="M 1228 531 
L 3431 531 
L 3431 0 
L 469 0 
L 469 531 
Q 828 903 1448 1529 
Q 2069 2156 2228 2338 
Q 2531 2678 2651 2914 
Q 2772 3150 2772 3378 
Q 2772 3750 2511 3984 
Q 2250 4219 1831 4219 
Q 1534 4219 1204 4116 
Q 875 4013 500 3803 
L 500 4441 
Q 881 4594 1212 4672 
Q 1544 4750 1819 4750 
Q 2544 4750 2975 4387 
Q 3406 4025 3406 3419 
Q 3406 3131 3298 2873 
Q 3191 2616 2906 2266 
Q 2828 2175 2409 1742 
Q 1991 1309 1228 531 
z
" transform="scale(0.015625)"/>
        <path id="DejaVuSans-18" d="M 691 4666 
L 3169 4666 
L 3169 4134 
L 1269 4134 
L 1269 2991 
Q 1406 3038 1543 3061 
Q 1681 3084 1819 3084 
Q 2600 3084 3056 2656 
Q 3513 2228 3513 1497 
Q 3513 744 3044 326 
Q 2575 -91 1722 -91 
Q 1428 -91 1123 -41 
Q 819 9 494 109 
L 494 744 
Q 775 591 1075 516 
Q 1375 441 1709 441 
Q 2250 441 2565 725 
Q 2881 1009 2881 1497 
Q 2881 1984 2565 2268 
Q 2250 2553 1709 2553 
Q 1456 2553 1204 2497 
Q 953 2441 691 2322 
L 691 4666 
z
" transform="scale(0.015625)"/>
       </defs>
       <use xlink:href="#DejaVuSans-30"/>
       <use xlink:href="#DejaVuSans-44" transform="translate(86.28125 0)"/>
       <use xlink:href="#DejaVuSans-5c" transform="translate(147.5625 0)"/>
       <use xlink:href="#DejaVuSans-3" transform="translate(206.75 0)"/>
       <use xlink:href="#DejaVuSans-15" transform="translate(238.53125 0)"/>
       <use xlink:href="#DejaVuSans-18" transform="translate(302.15625 0)"/>
      </g>
     </g>
    </g>
    <g id="xtick_3">
     <g id="line2d_3">
      <g>
       <use xlink:href="#mabfa579fe0" x="224.847945" y="178.821969" style="fill: #9198a1; stroke: #9198a1; stroke-width: 0.8"/>
      </g>
     </g>
     <g id="text_3">
      <!-- Jun 08 -->
      <g style="fill: #9198a1" transform="translate(210.660288 192.659859) scale(0.09 -0.09)">
       <defs>
        <path id="DejaVuSans-2d" d="M 628 4666 
L 1259 4666 
L 1259 325 
Q 1259 -519 939 -900 
Q 619 -1281 -91 -1281 
L -331 -1281 
L -331 -750 
L -134 -750 
Q 284 -750 456 -515 
Q 628 -281 628 325 
L 628 4666 
z
" transform="scale(0.015625)"/>
        <path id="DejaVuSans-58" d="M 544 1381 
L 544 3500 
L 1119 3500 
L 1119 1403 
Q 1119 906 1312 657 
Q 1506 409 1894 409 
Q 2359 409 2629 706 
Q 2900 1003 2900 1516 
L 2900 3500 
L 3475 3500 
L 3475 0 
L 2900 0 
L 2900 538 
Q 2691 219 2414 64 
Q 2138 -91 1772 -91 
Q 1169 -91 856 284 
Q 544 659 544 1381 
z
M 1991 3584 
L 1991 3584 
z
" transform="scale(0.015625)"/>
        <path id="DejaVuSans-51" d="M 3513 2113 
L 3513 0 
L 2938 0 
L 2938 2094 
Q 2938 2591 2744 2837 
Q 2550 3084 2163 3084 
Q 1697 3084 1428 2787 
Q 1159 2491 1159 1978 
L 1159 0 
L 581 0 
L 581 3500 
L 1159 3500 
L 1159 2956 
Q 1366 3272 1645 3428 
Q 1925 3584 2291 3584 
Q 2894 3584 3203 3211 
Q 3513 2838 3513 2113 
z
" transform="scale(0.015625)"/>
        <path id="DejaVuSans-13" d="M 2034 4250 
Q 1547 4250 1301 3770 
Q 1056 3291 1056 2328 
Q 1056 1369 1301 889 
Q 1547 409 2034 409 
Q 2525 409 2770 889 
Q 3016 1369 3016 2328 
Q 3016 3291 2770 3770 
Q 2525 4250 2034 4250 
z
M 2034 4750 
Q 2819 4750 3233 4129 
Q 3647 3509 3647 2328 
Q 3647 1150 3233 529 
Q 2819 -91 2034 -91 
Q 1250 -91 836 529 
Q 422 1150 422 2328 
Q 422 3509 836 4129 
Q 1250 4750 2034 4750 
z
" transform="scale(0.015625)"/>
        <path id="DejaVuSans-1b" d="M 2034 2216 
Q 1584 2216 1326 1975 
Q 1069 1734 1069 1313 
Q 1069 891 1326 650 
Q 1584 409 2034 409 
Q 2484 409 2743 651 
Q 3003 894 3003 1313 
Q 3003 1734 2745 1975 
Q 2488 2216 2034 2216 
z
M 1403 2484 
Q 997 2584 770 2862 
Q 544 3141 544 3541 
Q 544 4100 942 4425 
Q 1341 4750 2034 4750 
Q 2731 4750 3128 4425 
Q 3525 4100 3525 3541 
Q 3525 3141 3298 2862 
Q 3072 2584 2669 2484 
Q 3125 2378 3379 2068 
Q 3634 1759 3634 1313 
Q 3634 634 3220 271 
Q 2806 -91 2034 -91 
Q 1263 -91 848 271 
Q 434 634 434 1313 
Q 434 1759 690 2068 
Q 947 2378 1403 2484 
z
M 1172 3481 
Q 1172 3119 1398 2916 
Q 1625 2713 2034 2713 
Q 2441 2713 2670 2916 
Q 2900 3119 2900 3481 
Q 2900 3844 2670 4047 
Q 2441 4250 2034 4250 
Q 1625 4250 1398 4047 
Q 1172 3844 1172 3481 
z
" transform="scale(0.015625)"/>
       </defs>
       <use xlink:href="#DejaVuSans-2d"/>
       <use xlink:href="#DejaVuSans-58" transform="translate(29.5 0)"/>
       <use xlink:href="#DejaVuSans-51" transform="translate(92.875 0)"/>
       <use xlink:href="#DejaVuSans-3" transform="translate(156.25 0)"/>
       <use xlink:href="#DejaVuSans-13" transform="translate(188.03125 0)"/>
       <use xlink:href="#DejaVuSans-1b" transform="translate(251.65625 0)"/>
      </g>
     </g>
    </g>
    <g id="xtick_4">
     <g id="line2d_4">
      <g>
       <use xlink:href="#mabfa579fe0" x="299.768224" y="178.821969" style="fill: #9198a1; stroke: #9198a1; stroke-width: 0.8"/>
      </g>
     </g>
     <g id="text_4">
      <!-- Jun 22 -->
      <g style="fill: #9198a1" transform="translate(285.580568 192.659859) scale(0.09 -0.09)">
       <use xlink:href="#DejaVuSans-2d"/>
       <use xlink:href="#DejaVuSans-58" transform="translate(29.5 0)"/>
       <use xlink:href="#DejaVuSans-51" transform="translate(92.875 0)"/>
       <use xlink:href="#DejaVuSans-3" transform="translate(156.25 0)"/>
       <use xlink:href="#DejaVuSans-15" transform="translate(188.03125 0)"/>
       <use xlink:href="#DejaVuSans-15" transform="translate(251.65625 0)"/>
      </g>
     </g>
    </g>
    <g id="xtick_5">
     <g id="line2d_5">
      <g>
       <use xlink:href="#mabfa579fe0" x="374.688504" y="178.821969" style="fill: #9198a1; stroke: #9198a1; stroke-width: 0.8"/>
      </g>
     </g>
     <g id="text_5">
      <!-- Jul 06 -->
      <g style="fill: #9198a1" transform="translate(362.102566 192.660563) scale(0.09 -0.09)">
       <defs>
        <path id="DejaVuSans-4f" d="M 603 4863 
L 1178 4863 
L 1178 0 
L 603 0 
L 603 4863 
z
" transform="scale(0.015625)"/>
        <path id="DejaVuSans-19" d="M 2113 2584 
Q 1688 2584 1439 2293 
Q 1191 2003 1191 1497 
Q 1191 994 1439 701 
Q 1688 409 2113 409 
Q 2538 409 2786 701 
Q 3034 994 3034 1497 
Q 3034 2003 2786 2293 
Q 2538 2584 2113 2584 
z
M 3366 4563 
L 3366 3988 
Q 3128 4100 2886 4159 
Q 2644 4219 2406 4219 
Q 1781 4219 1451 3797 
Q 1122 3375 1075 2522 
Q 1259 2794 1537 2939 
Q 1816 3084 2150 3084 
Q 2853 3084 3261 2657 
Q 3669 2231 3669 1497 
Q 3669 778 3244 343 
Q 2819 -91 2113 -91 
Q 1303 -91 875 529 
Q 447 1150 447 2328 
Q 447 3434 972 4092 
Q 1497 4750 2381 4750 
Q 2619 4750 2861 4703 
Q 3103 4656 3366 4563 
z
" transform="scale(0.015625)"/>
       </defs>
       <use xlink:href="#DejaVuSans-2d"/>
       <use xlink:href="#DejaVuSans-58" transform="translate(29.5 0)"/>
       <use xlink:href="#DejaVuSans-4f" transform="translate(92.875 0)"/>
       <use xlink:href="#DejaVuSans-3" transform="translate(120.65625 0)"/>
       <use xlink:href="#DejaVuSans-13" transform="translate(152.4375 0)"/>
       <use xlink:href="#DejaVuSans-19" transform="translate(216.0625 0)"/>
      </g>
     </g>
    </g>
    <g id="xtick_6">
     <g id="line2d_6">
      <g>
       <use xlink:href="#mabfa579fe0" x="449.608784" y="178.821969" style="fill: #9198a1; stroke: #9198a1; stroke-width: 0.8"/>
      </g>
     </g>
     <g id="text_6">
      <!-- Jul 20 -->
      <g style="fill: #9198a1" transform="translate(437.022846 192.660563) scale(0.09 -0.09)">
       <use xlink:href="#DejaVuSans-2d"/>
       <use xlink:href="#DejaVuSans-58" transform="translate(29.5 0)"/>
       <use xlink:href="#DejaVuSans-4f" transform="translate(92.875 0)"/>
       <use xlink:href="#DejaVuSans-3" transform="translate(120.65625 0)"/>
       <use xlink:href="#DejaVuSans-15" transform="translate(152.4375 0)"/>
       <use xlink:href="#DejaVuSans-13" transform="translate(216.0625 0)"/>
      </g>
     </g>
    </g>
    <g id="xtick_7">
     <g id="line2d_7">
      <g>
       <use xlink:href="#mabfa579fe0" x="524.529063" y="178.821969" style="fill: #9198a1; stroke: #9198a1; stroke-width: 0.8"/>
      </g>
     </g>
     <g id="text_7">
      <!-- Aug 03 -->
      <g style="fill: #9198a1" transform="translate(508.585704 192.659859) scale(0.09 -0.09)">
       <defs>
        <path id="DejaVuSans-24" d="M 2188 4044 
L 1331 1722 
L 3047 1722 
L 2188 4044 
z
M 1831 4666 
L 2547 4666 
L 4325 0 
L 3669 0 
L 3244 1197 
L 1141 1197 
L 716 0 
L 50 0 
L 1831 4666 
z
" transform="scale(0.015625)"/>
        <path id="DejaVuSans-4a" d="M 2906 1791 
Q 2906 2416 2648 2759 
Q 2391 3103 1925 3103 
Q 1463 3103 1205 2759 
Q 947 2416 947 1791 
Q 947 1169 1205 825 
Q 1463 481 1925 481 
Q 2391 481 2648 825 
Q 2906 1169 2906 1791 
z
M 3481 434 
Q 3481 -459 3084 -895 
Q 2688 -1331 1869 -1331 
Q 1566 -1331 1297 -1286 
Q 1028 -1241 775 -1147 
L 775 -588 
Q 1028 -725 1275 -790 
Q 1522 -856 1778 -856 
Q 2344 -856 2625 -561 
Q 2906 -266 2906 331 
L 2906 616 
Q 2728 306 2450 153 
Q 2172 0 1784 0 
Q 1141 0 747 490 
Q 353 981 353 1791 
Q 353 2603 747 3093 
Q 1141 3584 1784 3584 
Q 2172 3584 2450 3431 
Q 2728 3278 2906 2969 
L 2906 3500 
L 3481 3500 
L 3481 434 
z
" transform="scale(0.015625)"/>
        <path id="DejaVuSans-16" d="M 2597 2516 
Q 3050 2419 3304 2112 
Q 3559 1806 3559 1356 
Q 3559 666 3084 287 
Q 2609 -91 1734 -91 
Q 1441 -91 1130 -33 
Q 819 25 488 141 
L 488 750 
Q 750 597 1062 519 
Q 1375 441 1716 441 
Q 2309 441 2620 675 
Q 2931 909 2931 1356 
Q 2931 1769 2642 2001 
Q 2353 2234 1838 2234 
L 1294 2234 
L 1294 2753 
L 1863 2753 
Q 2328 2753 2575 2939 
Q 2822 3125 2822 3475 
Q 2822 3834 2567 4026 
Q 2313 4219 1838 4219 
Q 1578 4219 1281 4162 
Q 984 4106 628 3988 
L 628 4550 
Q 988 4650 1302 4700 
Q 1616 4750 1894 4750 
Q 2613 4750 3031 4423 
Q 3450 4097 3450 3541 
Q 3450 3153 3228 2886 
Q 3006 2619 2597 2516 
z
" transform="scale(0.015625)"/>
       </defs>
       <use xlink:href="#DejaVuSans-24"/>
       <use xlink:href="#DejaVuSans-58" transform="translate(68.40625 0)"/>
       <use xlink:href="#DejaVuSans-4a" transform="translate(131.78125 0)"/>
       <use xlink:href="#DejaVuSans-3" transform="translate(195.265625 0)"/>
       <use xlink:href="#DejaVuSans-13" transform="translate(227.046875 0)"/>
       <use xlink:href="#DejaVuSans-16" transform="translate(290.671875 0)"/>
      </g>
     </g>
    </g>
   </g>
   <g id="matplotlib.axis_2">
    <g id="ytick_1">
     <g id="line2d_8">
      <path d="M 29.2525 178.821969 
L 564.9325 178.821969 
" clip-path="url(#pf2b1b905b9)" style="fill: none; stroke: #30363d; stroke-opacity: 0.6; stroke-width: 0.6; stroke-linecap: square"/>
     </g>
     <g id="line2d_9">
      <defs>
       <path id="m10358e0cdc" d="M 0 0 
L -3.5 0 
" style="stroke: #9198a1; stroke-width: 0.8"/>
      </defs>
      <g>
       <use xlink:href="#m10358e0cdc" x="29.2525" y="178.821969" style="fill: #9198a1; stroke: #9198a1; stroke-width: 0.8"/>
      </g>
     </g>
     <g id="text_8">
      <!-- 0 -->
      <g style="fill: #9198a1" transform="translate(16.52625 182.240914) scale(0.09 -0.09)">
       <use xlink:href="#DejaVuSans-13"/>
      </g>
     </g>
    </g>
    <g id="ytick_2">
     <g id="line2d_10">
      <path d="M 29.2525 148.97849 
L 564.9325 148.97849 
" clip-path="url(#pf2b1b905b9)" style="fill: none; stroke: #30363d; stroke-opacity: 0.6; stroke-width: 0.6; stroke-linecap: square"/>
     </g>
     <g id="line2d_11">
      <g>
       <use xlink:href="#m10358e0cdc" x="29.2525" y="148.97849" style="fill: #9198a1; stroke: #9198a1; stroke-width: 0.8"/>
      </g>
     </g>
     <g id="text_9">
      <!-- 5 -->
      <g style="fill: #9198a1" transform="translate(16.52625 152.397436) scale(0.09 -0.09)">
       <use xlink:href="#DejaVuSans-18"/>
      </g>
     </g>
    </g>
    <g id="ytick_3">
     <g id="line2d_12">
      <path d="M 29.2525 119.135012 
L 564.9325 119.135012 
" clip-path="url(#pf2b1b905b9)" style="fill: none; stroke: #30363d; stroke-opacity: 0.6; stroke-width: 0.6; stroke-linecap: square"/>
     </g>
     <g id="line2d_13">
      <g>
       <use xlink:href="#m10358e0cdc" x="29.2525" y="119.135012" style="fill: #9198a1; stroke: #9198a1; stroke-width: 0.8"/>
      </g>
     </g>
     <g id="text_10">
      <!-- 10 -->
      <g style="fill: #9198a1" transform="translate(10.8 122.553958) scale(0.09 -0.09)">
       <use xlink:href="#DejaVuSans-14"/>
       <use xlink:href="#DejaVuSans-13" transform="translate(63.625 0)"/>
      </g>
     </g>
    </g>
    <g id="ytick_4">
     <g id="line2d_14">
      <path d="M 29.2525 89.291534 
L 564.9325 89.291534 
" clip-path="url(#pf2b1b905b9)" style="fill: none; stroke: #30363d; stroke-opacity: 0.6; stroke-width: 0.6; stroke-linecap: square"/>
     </g>
     <g id="line2d_15">
      <g>
       <use xlink:href="#m10358e0cdc" x="29.2525" y="89.291534" style="fill: #9198a1; stroke: #9198a1; stroke-width: 0.8"/>
      </g>
     </g>
     <g id="text_11">
      <!-- 15 -->
      <g style="fill: #9198a1" transform="translate(10.8 92.710479) scale(0.09 -0.09)">
       <use xlink:href="#DejaVuSans-14"/>
       <use xlink:href="#DejaVuSans-18" transform="translate(63.625 0)"/>
      </g>
     </g>
    </g>
    <g id="ytick_5">
     <g id="line2d_16">
      <path d="M 29.2525 59.448056 
L 564.9325 59.448056 
" clip-path="url(#pf2b1b905b9)" style="fill: none; stroke: #30363d; stroke-opacity: 0.6; stroke-width: 0.6; stroke-linecap: square"/>
     </g>
     <g id="line2d_17">
      <g>
       <use xlink:href="#m10358e0cdc" x="29.2525" y="59.448056" style="fill: #9198a1; stroke: #9198a1; stroke-width: 0.8"/>
      </g>
     </g>
     <g id="text_12">
      <!-- 20 -->
      <g style="fill: #9198a1" transform="translate(10.8 62.867001) scale(0.09 -0.09)">
       <use xlink:href="#DejaVuSans-15"/>
       <use xlink:href="#DejaVuSans-13" transform="translate(63.625 0)"/>
      </g>
     </g>
    </g>
   </g>
   <g id="FillBetweenPolyCollection_1">
    <defs>
     <path id="me2b7863cfd" d="M 53.601591 -26.800703 
L 53.601591 -62.612877 
L 58.953039 -62.612877 
L 58.953039 -68.581573 
L 64.304488 -68.581573 
L 64.304488 -68.581573 
L 69.655937 -68.581573 
L 69.655937 -68.581573 
L 75.007385 -68.581573 
L 75.007385 -74.550268 
L 80.358834 -74.550268 
L 80.358834 -80.518964 
L 85.710282 -80.518964 
L 85.710282 -80.518964 
L 91.061731 -80.518964 
L 91.061731 -80.518964 
L 96.413179 -80.518964 
L 96.413179 -80.518964 
L 101.764628 -80.518964 
L 101.764628 -80.518964 
L 107.116076 -80.518964 
L 107.116076 -86.48766 
L 112.467525 -86.48766 
L 112.467525 -92.456355 
L 117.818974 -92.456355 
L 117.818974 -92.456355 
L 123.170422 -92.456355 
L 123.170422 -92.456355 
L 128.521871 -92.456355 
L 128.521871 -92.456355 
L 133.873319 -92.456355 
L 133.873319 -98.425051 
L 139.224768 -98.425051 
L 139.224768 -98.425051 
L 144.576216 -98.425051 
L 144.576216 -104.393747 
L 149.927665 -104.393747 
L 149.927665 -104.393747 
L 155.279113 -104.393747 
L 155.279113 -104.393747 
L 160.630562 -104.393747 
L 160.630562 -110.362442 
L 165.98201 -110.362442 
L 165.98201 -110.362442 
L 171.333459 -110.362442 
L 171.333459 -116.331138 
L 176.684908 -116.331138 
L 176.684908 -116.331138 
L 182.036356 -116.331138 
L 182.036356 -116.331138 
L 187.387805 -116.331138 
L 187.387805 -116.331138 
L 192.739253 -116.331138 
L 192.739253 -116.331138 
L 198.090702 -116.331138 
L 198.090702 -116.331138 
L 203.44215 -116.331138 
L 203.44215 -116.331138 
L 208.793599 -116.331138 
L 208.793599 -116.331138 
L 214.145047 -116.331138 
L 214.145047 -116.331138 
L 219.496496 -116.331138 
L 219.496496 -116.331138 
L 224.847945 -116.331138 
L 224.847945 -122.299834 
L 230.199393 -122.299834 
L 230.199393 -122.299834 
L 235.550842 -122.299834 
L 235.550842 -122.299834 
L 240.90229 -122.299834 
L 240.90229 -122.299834 
L 246.253739 -122.299834 
L 246.253739 -134.237225 
L 251.605187 -134.237225 
L 251.605187 -134.237225 
L 256.956636 -134.237225 
L 256.956636 -134.237225 
L 262.308084 -134.237225 
L 262.308084 -134.237225 
L 267.659533 -134.237225 
L 267.659533 -140.205921 
L 273.010982 -140.205921 
L 273.010982 -140.205921 
L 278.36243 -140.205921 
L 278.36243 -140.205921 
L 283.713879 -140.205921 
L 283.713879 -140.205921 
L 289.065327 -140.205921 
L 289.065327 -140.205921 
L 294.416776 -140.205921 
L 294.416776 -140.205921 
L 299.768224 -140.205921 
L 299.768224 -146.174616 
L 305.119673 -146.174616 
L 305.119673 -146.174616 
L 310.471121 -146.174616 
L 310.471121 -146.174616 
L 315.82257 -146.174616 
L 315.82257 -146.174616 
L 321.174018 -146.174616 
L 321.174018 -146.174616 
L 326.525467 -146.174616 
L 326.525467 -146.174616 
L 331.876916 -146.174616 
L 331.876916 -146.174616 
L 337.228364 -146.174616 
L 337.228364 -146.174616 
L 342.579813 -146.174616 
L 342.579813 -146.174616 
L 347.931261 -146.174616 
L 347.931261 -146.174616 
L 353.28271 -146.174616 
L 353.28271 -146.174616 
L 358.634158 -146.174616 
L 358.634158 -146.174616 
L 363.985607 -146.174616 
L 363.985607 -152.143312 
L 369.337055 -152.143312 
L 369.337055 -152.143312 
L 374.688504 -152.143312 
L 374.688504 -158.112007 
L 380.039953 -158.112007 
L 380.039953 -158.112007 
L 385.391401 -158.112007 
L 385.391401 -158.112007 
L 390.74285 -158.112007 
L 390.74285 -158.112007 
L 396.094298 -158.112007 
L 396.094298 -158.112007 
L 401.445747 -158.112007 
L 401.445747 -158.112007 
L 406.797195 -158.112007 
L 406.797195 -158.112007 
L 412.148644 -158.112007 
L 412.148644 -158.112007 
L 417.500092 -158.112007 
L 417.500092 -158.112007 
L 422.851541 -158.112007 
L 422.851541 -158.112007 
L 428.20299 -158.112007 
L 428.20299 -164.080703 
L 433.554438 -164.080703 
L 433.554438 -164.080703 
L 438.905887 -164.080703 
L 438.905887 -164.080703 
L 444.257335 -164.080703 
L 444.257335 -164.080703 
L 449.608784 -164.080703 
L 449.608784 -164.080703 
L 454.960232 -164.080703 
L 454.960232 -164.080703 
L 460.311681 -164.080703 
L 460.311681 -164.080703 
L 465.663129 -164.080703 
L 465.663129 -164.080703 
L 471.014578 -164.080703 
L 471.014578 -164.080703 
L 476.366026 -164.080703 
L 476.366026 -164.080703 
L 481.717475 -164.080703 
L 481.717475 -164.080703 
L 487.068924 -164.080703 
L 487.068924 -164.080703 
L 492.420372 -164.080703 
L 492.420372 -164.080703 
L 497.771821 -164.080703 
L 497.771821 -164.080703 
L 503.123269 -164.080703 
L 503.123269 -164.080703 
L 508.474718 -164.080703 
L 508.474718 -164.080703 
L 513.826166 -164.080703 
L 513.826166 -164.080703 
L 519.177615 -164.080703 
L 519.177615 -164.080703 
L 524.529063 -164.080703 
L 524.529063 -164.080703 
L 529.880512 -164.080703 
L 529.880512 -164.080703 
L 535.231961 -164.080703 
L 535.231961 -164.080703 
L 540.583409 -164.080703 
L 540.583409 -164.080703 
L 540.583409 -26.800703 
L 540.583409 -26.800703 
L 540.583409 -26.800703 
L 535.231961 -26.800703 
L 535.231961 -26.800703 
L 529.880512 -26.800703 
L 529.880512 -26.800703 
L 524.529063 -26.800703 
L 524.529063 -26.800703 
L 519.177615 -26.800703 
L 519.177615 -26.800703 
L 513.826166 -26.800703 
L 513.826166 -26.800703 
L 508.474718 -26.800703 
L 508.474718 -26.800703 
L 503.123269 -26.800703 
L 503.123269 -26.800703 
L 497.771821 -26.800703 
L 497.771821 -26.800703 
L 492.420372 -26.800703 
L 492.420372 -26.800703 
L 487.068924 -26.800703 
L 487.068924 -26.800703 
L 481.717475 -26.800703 
L 481.717475 -26.800703 
L 476.366026 -26.800703 
L 476.366026 -26.800703 
L 471.014578 -26.800703 
L 471.014578 -26.800703 
L 465.663129 -26.800703 
L 465.663129 -26.800703 
L 460.311681 -26.800703 
L 460.311681 -26.800703 
L 454.960232 -26.800703 
L 454.960232 -26.800703 
L 449.608784 -26.800703 
L 449.608784 -26.800703 
L 444.257335 -26.800703 
L 444.257335 -26.800703 
L 438.905887 -26.800703 
L 438.905887 -26.800703 
L 433.554438 -26.800703 
L 433.554438 -26.800703 
L 428.20299 -26.800703 
L 428.20299 -26.800703 
L 422.851541 -26.800703 
L 422.851541 -26.800703 
L 417.500092 -26.800703 
L 417.500092 -26.800703 
L 412.148644 -26.800703 
L 412.148644 -26.800703 
L 406.797195 -26.800703 
L 406.797195 -26.800703 
L 401.445747 -26.800703 
L 401.445747 -26.800703 
L 396.094298 -26.800703 
L 396.094298 -26.800703 
L 390.74285 -26.800703 
L 390.74285 -26.800703 
L 385.391401 -26.800703 
L 385.391401 -26.800703 
L 380.039953 -26.800703 
L 380.039953 -26.800703 
L 374.688504 -26.800703 
L 374.688504 -26.800703 
L 369.337055 -26.800703 
L 369.337055 -26.800703 
L 363.985607 -26.800703 
L 363.985607 -26.800703 
L 358.634158 -26.800703 
L 358.634158 -26.800703 
L 353.28271 -26.800703 
L 353.28271 -26.800703 
L 347.931261 -26.800703 
L 347.931261 -26.800703 
L 342.579813 -26.800703 
L 342.579813 -26.800703 
L 337.228364 -26.800703 
L 337.228364 -26.800703 
L 331.876916 -26.800703 
L 331.876916 -26.800703 
L 326.525467 -26.800703 
L 326.525467 -26.800703 
L 321.174018 -26.800703 
L 321.174018 -26.800703 
L 315.82257 -26.800703 
L 315.82257 -26.800703 
L 310.471121 -26.800703 
L 310.471121 -26.800703 
L 305.119673 -26.800703 
L 305.119673 -26.800703 
L 299.768224 -26.800703 
L 299.768224 -26.800703 
L 294.416776 -26.800703 
L 294.416776 -26.800703 
L 289.065327 -26.800703 
L 289.065327 -26.800703 
L 283.713879 -26.800703 
L 283.713879 -26.800703 
L 278.36243 -26.800703 
L 278.36243 -26.800703 
L 273.010982 -26.800703 
L 273.010982 -26.800703 
L 267.659533 -26.800703 
L 267.659533 -26.800703 
L 262.308084 -26.800703 
L 262.308084 -26.800703 
L 256.956636 -26.800703 
L 256.956636 -26.800703 
L 251.605187 -26.800703 
L 251.605187 -26.800703 
L 246.253739 -26.800703 
L 246.253739 -26.800703 
L 240.90229 -26.800703 
L 240.90229 -26.800703 
L 235.550842 -26.800703 
L 235.550842 -26.800703 
L 230.199393 -26.800703 
L 230.199393 -26.800703 
L 224.847945 -26.800703 
L 224.847945 -26.800703 
L 219.496496 -26.800703 
L 219.496496 -26.800703 
L 214.145047 -26.800703 
L 214.145047 -26.800703 
L 208.793599 -26.800703 
L 208.793599 -26.800703 
L 203.44215 -26.800703 
L 203.44215 -26.800703 
L 198.090702 -26.800703 
L 198.090702 -26.800703 
L 192.739253 -26.800703 
L 192.739253 -26.800703 
L 187.387805 -26.800703 
L 187.387805 -26.800703 
L 182.036356 -26.800703 
L 182.036356 -26.800703 
L 176.684908 -26.800703 
L 176.684908 -26.800703 
L 171.333459 -26.800703 
L 171.333459 -26.800703 
L 165.98201 -26.800703 
L 165.98201 -26.800703 
L 160.630562 -26.800703 
L 160.630562 -26.800703 
L 155.279113 -26.800703 
L 155.279113 -26.800703 
L 149.927665 -26.800703 
L 149.927665 -26.800703 
L 144.576216 -26.800703 
L 144.576216 -26.800703 
L 139.224768 -26.800703 
L 139.224768 -26.800703 
L 133.873319 -26.800703 
L 133.873319 -26.800703 
L 128.521871 -26.800703 
L 128.521871 -26.800703 
L 123.170422 -26.800703 
L 123.170422 -26.800703 
L 117.818974 -26.800703 
L 117.818974 -26.800703 
L 112.467525 -26.800703 
L 112.467525 -26.800703 
L 107.116076 -26.800703 
L 107.116076 -26.800703 
L 101.764628 -26.800703 
L 101.764628 -26.800703 
L 96.413179 -26.800703 
L 96.413179 -26.800703 
L 91.061731 -26.800703 
L 91.061731 -26.800703 
L 85.710282 -26.800703 
L 85.710282 -26.800703 
L 80.358834 -26.800703 
L 80.358834 -26.800703 
L 75.007385 -26.800703 
L 75.007385 -26.800703 
L 69.655937 -26.800703 
L 69.655937 -26.800703 
L 64.304488 -26.800703 
L 64.304488 -26.800703 
L 58.953039 -26.800703 
L 58.953039 -26.800703 
L 53.601591 -26.800703 
z
" style="stroke: #bc8cff; stroke-opacity: 0.22"/>
    </defs>
    <g clip-path="url(#pf2b1b905b9)">
     <use xlink:href="#me2b7863cfd" x="0" y="205.622672" style="fill: #bc8cff; fill-opacity: 0.22; stroke: #bc8cff; stroke-opacity: 0.22"/>
    </g>
   </g>
   <g id="line2d_18">
    <path d="M 53.601591 143.009795 
L 58.953039 143.009795 
L 58.953039 137.041099 
L 75.007385 137.041099 
L 75.007385 131.072404 
L 80.358834 131.072404 
L 80.358834 125.103708 
L 107.116076 125.103708 
L 107.116076 119.135012 
L 112.467525 119.135012 
L 112.467525 113.166317 
L 133.873319 113.166317 
L 133.873319 107.197621 
L 144.576216 107.197621 
L 144.576216 101.228925 
L 160.630562 101.228925 
L 160.630562 95.26023 
L 171.333459 95.26023 
L 171.333459 89.291534 
L 224.847945 89.291534 
L 224.847945 83.322838 
L 246.253739 83.322838 
L 246.253739 71.385447 
L 267.659533 71.385447 
L 267.659533 65.416751 
L 299.768224 65.416751 
L 299.768224 59.448056 
L 363.985607 59.448056 
L 363.985607 53.47936 
L 374.688504 53.47936 
L 374.688504 47.510664 
L 428.20299 47.510664 
L 428.20299 41.541969 
L 540.583409 41.541969 
L 540.583409 41.541969 
" clip-path="url(#pf2b1b905b9)" style="fill: none; stroke: #bc8cff; stroke-width: 2; stroke-linecap: square"/>
   </g>
   <g id="patch_3">
    <path d="M 29.2525 178.821969 
L 29.2525 34.677969 
" style="fill: none; stroke: #30363d; stroke-width: 0.8; stroke-linejoin: miter; stroke-linecap: square"/>
   </g>
   <g id="patch_4">
    <path d="M 29.2525 178.821969 
L 564.9325 178.821969 
" style="fill: none; stroke: #30363d; stroke-width: 0.8; stroke-linejoin: miter; stroke-linecap: square"/>
   </g>
   <g id="text_13">
    <!--   23 -->
    <g style="fill: #bc8cff" transform="translate(540.583409 44.139625) scale(0.1 -0.1)">
     <defs>
      <path id="DejaVuSans-Bold-3" transform="scale(0.015625)"/>
      <path id="DejaVuSans-Bold-15" d="M 1844 884 
L 3897 884 
L 3897 0 
L 506 0 
L 506 884 
L 2209 2388 
Q 2438 2594 2547 2791 
Q 2656 2988 2656 3200 
Q 2656 3528 2436 3728 
Q 2216 3928 1850 3928 
Q 1569 3928 1234 3808 
Q 900 3688 519 3450 
L 519 4475 
Q 925 4609 1322 4679 
Q 1719 4750 2100 4750 
Q 2938 4750 3402 4381 
Q 3866 4013 3866 3353 
Q 3866 2972 3669 2642 
Q 3472 2313 2841 1759 
L 1844 884 
z
" transform="scale(0.015625)"/>
      <path id="DejaVuSans-Bold-16" d="M 2981 2516 
Q 3453 2394 3698 2092 
Q 3944 1791 3944 1325 
Q 3944 631 3412 270 
Q 2881 -91 1863 -91 
Q 1503 -91 1142 -33 
Q 781 25 428 141 
L 428 1069 
Q 766 900 1098 814 
Q 1431 728 1753 728 
Q 2231 728 2486 893 
Q 2741 1059 2741 1369 
Q 2741 1688 2480 1852 
Q 2219 2016 1709 2016 
L 1228 2016 
L 1228 2791 
L 1734 2791 
Q 2188 2791 2409 2933 
Q 2631 3075 2631 3366 
Q 2631 3634 2415 3781 
Q 2200 3928 1806 3928 
Q 1516 3928 1219 3862 
Q 922 3797 628 3669 
L 628 4550 
Q 984 4650 1334 4700 
Q 1684 4750 2022 4750 
Q 2931 4750 3382 4451 
Q 3834 4153 3834 3553 
Q 3834 3144 3618 2883 
Q 3403 2622 2981 2516 
z
" transform="scale(0.015625)"/>
     </defs>
     <use xlink:href="#DejaVuSans-Bold-3"/>
     <use xlink:href="#DejaVuSans-Bold-3" transform="translate(34.8125 0)"/>
     <use xlink:href="#DejaVuSans-Bold-15" transform="translate(69.625 0)"/>
     <use xlink:href="#DejaVuSans-Bold-16" transform="translate(139.203125 0)"/>
    </g>
   </g>
   <g id="text_14">
    <!-- Repositories -->
    <g style="fill: #e6edf3" transform="translate(29.2525 20.677969) scale(0.13 -0.13)">
     <defs>
      <path id="DejaVuSans-Bold-35" d="M 2297 2597 
Q 2675 2597 2839 2737 
Q 3003 2878 3003 3200 
Q 3003 3519 2839 3656 
Q 2675 3794 2297 3794 
L 1791 3794 
L 1791 2597 
L 2297 2597 
z
M 1791 1766 
L 1791 0 
L 588 0 
L 588 4666 
L 2425 4666 
Q 3347 4666 3776 4356 
Q 4206 4047 4206 3378 
Q 4206 2916 3982 2619 
Q 3759 2322 3309 2181 
Q 3556 2125 3751 1926 
Q 3947 1728 4147 1325 
L 4800 0 
L 3519 0 
L 2950 1159 
Q 2778 1509 2601 1637 
Q 2425 1766 2131 1766 
L 1791 1766 
z
" transform="scale(0.015625)"/>
      <path id="DejaVuSans-Bold-48" d="M 4031 1759 
L 4031 1441 
L 1416 1441 
Q 1456 1047 1700 850 
Q 1944 653 2381 653 
Q 2734 653 3104 758 
Q 3475 863 3866 1075 
L 3866 213 
Q 3469 63 3072 -14 
Q 2675 -91 2278 -91 
Q 1328 -91 801 392 
Q 275 875 275 1747 
Q 275 2603 792 3093 
Q 1309 3584 2216 3584 
Q 3041 3584 3536 3087 
Q 4031 2591 4031 1759 
z
M 2881 2131 
Q 2881 2450 2695 2645 
Q 2509 2841 2209 2841 
Q 1884 2841 1681 2658 
Q 1478 2475 1428 2131 
L 2881 2131 
z
" transform="scale(0.015625)"/>
      <path id="DejaVuSans-Bold-53" d="M 1656 506 
L 1656 -1331 
L 538 -1331 
L 538 3500 
L 1656 3500 
L 1656 2988 
Q 1888 3294 2169 3439 
Q 2450 3584 2816 3584 
Q 3463 3584 3878 3070 
Q 4294 2556 4294 1747 
Q 4294 938 3878 423 
Q 3463 -91 2816 -91 
Q 2450 -91 2169 54 
Q 1888 200 1656 506 
z
M 2400 2772 
Q 2041 2772 1848 2508 
Q 1656 2244 1656 1747 
Q 1656 1250 1848 986 
Q 2041 722 2400 722 
Q 2759 722 2948 984 
Q 3138 1247 3138 1747 
Q 3138 2247 2948 2509 
Q 2759 2772 2400 2772 
z
" transform="scale(0.015625)"/>
      <path id="DejaVuSans-Bold-52" d="M 2203 2784 
Q 1831 2784 1636 2517 
Q 1441 2250 1441 1747 
Q 1441 1244 1636 976 
Q 1831 709 2203 709 
Q 2569 709 2762 976 
Q 2956 1244 2956 1747 
Q 2956 2250 2762 2517 
Q 2569 2784 2203 2784 
z
M 2203 3584 
Q 3106 3584 3614 3096 
Q 4122 2609 4122 1747 
Q 4122 884 3614 396 
Q 3106 -91 2203 -91 
Q 1297 -91 786 396 
Q 275 884 275 1747 
Q 275 2609 786 3096 
Q 1297 3584 2203 3584 
z
" transform="scale(0.015625)"/>
      <path id="DejaVuSans-Bold-56" d="M 3272 3391 
L 3272 2541 
Q 2913 2691 2578 2766 
Q 2244 2841 1947 2841 
Q 1628 2841 1473 2761 
Q 1319 2681 1319 2516 
Q 1319 2381 1436 2309 
Q 1553 2238 1856 2203 
L 2053 2175 
Q 2913 2066 3209 1816 
Q 3506 1566 3506 1031 
Q 3506 472 3093 190 
Q 2681 -91 1863 -91 
Q 1516 -91 1145 -36 
Q 775 19 384 128 
L 384 978 
Q 719 816 1070 734 
Q 1422 653 1784 653 
Q 2113 653 2278 743 
Q 2444 834 2444 1013 
Q 2444 1163 2330 1236 
Q 2216 1309 1875 1350 
L 1678 1375 
Q 931 1469 631 1722 
Q 331 1975 331 2491 
Q 331 3047 712 3315 
Q 1094 3584 1881 3584 
Q 2191 3584 2531 3537 
Q 2872 3491 3272 3391 
z
" transform="scale(0.015625)"/>
      <path id="DejaVuSans-Bold-4c" d="M 538 3500 
L 1656 3500 
L 1656 0 
L 538 0 
L 538 3500 
z
M 538 4863 
L 1656 4863 
L 1656 3950 
L 538 3950 
L 538 4863 
z
" transform="scale(0.015625)"/>
      <path id="DejaVuSans-Bold-57" d="M 1759 4494 
L 1759 3500 
L 2913 3500 
L 2913 2700 
L 1759 2700 
L 1759 1216 
Q 1759 972 1856 886 
Q 1953 800 2241 800 
L 2816 800 
L 2816 0 
L 1856 0 
Q 1194 0 917 276 
Q 641 553 641 1216 
L 641 2700 
L 84 2700 
L 84 3500 
L 641 3500 
L 641 4494 
L 1759 4494 
z
" transform="scale(0.015625)"/>
      <path id="DejaVuSans-Bold-55" d="M 3138 2547 
Q 2991 2616 2845 2648 
Q 2700 2681 2553 2681 
Q 2122 2681 1889 2404 
Q 1656 2128 1656 1613 
L 1656 0 
L 538 0 
L 538 3500 
L 1656 3500 
L 1656 2925 
Q 1872 3269 2151 3426 
Q 2431 3584 2822 3584 
Q 2878 3584 2943 3579 
Q 3009 3575 3134 3559 
L 3138 2547 
z
" transform="scale(0.015625)"/>
     </defs>
     <use xlink:href="#DejaVuSans-Bold-35"/>
     <use xlink:href="#DejaVuSans-Bold-48" transform="translate(77 0)"/>
     <use xlink:href="#DejaVuSans-Bold-53" transform="translate(144.828125 0)"/>
     <use xlink:href="#DejaVuSans-Bold-52" transform="translate(216.40625 0)"/>
     <use xlink:href="#DejaVuSans-Bold-56" transform="translate(285.109375 0)"/>
     <use xlink:href="#DejaVuSans-Bold-4c" transform="translate(344.625 0)"/>
     <use xlink:href="#DejaVuSans-Bold-57" transform="translate(378.90625 0)"/>
     <use xlink:href="#DejaVuSans-Bold-52" transform="translate(426.703125 0)"/>
     <use xlink:href="#DejaVuSans-Bold-55" transform="translate(495.40625 0)"/>
     <use xlink:href="#DejaVuSans-Bold-4c" transform="translate(544.71875 0)"/>
     <use xlink:href="#DejaVuSans-Bold-48" transform="translate(579 0)"/>
     <use xlink:href="#DejaVuSans-Bold-56" transform="translate(646.828125 0)"/>
    </g>
   </g>
  </g>
 </g>
 <defs>
  <clipPath id="pf2b1b905b9">
   <rect x="29.2525" y="34.677969" width="535.68" height="144.144"/>
  </clipPath>
 </defs>
</svg>
